<?xml version="1.0" encoding="UTF-8" standalone="no"?>
<svg
   shape-rendering="geometricPrecision"
   width="358.09708"
   zoomAndPan="magnify"
   viewBox="0 0 268.57281 77.246119"
   height="102.99483"
   preserveAspectRatio="xMidYMid"
   version="1.0"
   id="svg64"
   sodipodi:docname="CRC-Logo.svg"
   xmlns:inkscape="http://www.inkscape.org/namespaces/inkscape"
   xmlns:sodipodi="http://sodipodi.sourceforge.net/DTD/sodipodi-0.dtd"
   xmlns="http://www.w3.org/2000/svg"
   xmlns:svg="http://www.w3.org/2000/svg">
  <sodipodi:namedview
     id="namedview64"
     pagecolor="#505050"
     bordercolor="#ffffff"
     borderopacity="1"
     inkscape:showpageshadow="0"
     inkscape:pageopacity="0"
     inkscape:pagecheckerboard="1"
     inkscape:deskcolor="#505050" />
  <defs
     id="defs1">
    <clipPath
       clipPathUnits="userSpaceOnUse"
       id="clipPath84">
      <rect
         style="fill:none;fill-opacity:0;stroke:#000000;stroke-width:2.2399;stroke-opacity:0"
         id="rect84"
         width="274.98123"
         height="84.749588"
         x="51.211124"
         y="138.74422" />
    </clipPath>
    <clipPath
       clipPathUnits="userSpaceOnUse"
       id="clipPath85">
      <rect
         style="fill:none;fill-opacity:0;stroke:#000000;stroke-width:2.2399;stroke-opacity:0"
         id="rect85"
         width="274.98123"
         height="84.749588"
         x="51.211124"
         y="138.74422" />
    </clipPath>
    <clipPath
       clipPathUnits="userSpaceOnUse"
       id="clipPath86">
      <rect
         style="fill:none;fill-opacity:0;stroke:#000000;stroke-width:2.2399;stroke-opacity:0"
         id="rect86"
         width="274.98123"
         height="84.749588"
         x="51.211124"
         y="138.74422" />
    </clipPath>
    <clipPath
       clipPathUnits="userSpaceOnUse"
       id="clipPath87">
      <rect
         style="fill:none;fill-opacity:0;stroke:#000000;stroke-width:2.2399;stroke-opacity:0"
         id="rect87"
         width="274.98123"
         height="84.749588"
         x="51.211124"
         y="138.74422" />
    </clipPath>
    <clipPath
       clipPathUnits="userSpaceOnUse"
       id="clipPath88">
      <rect
         style="fill:none;fill-opacity:0;stroke:#000000;stroke-width:2.2399;stroke-opacity:0"
         id="rect88"
         width="274.98123"
         height="84.749588"
         x="51.211124"
         y="138.74422" />
    </clipPath>
    <clipPath
       clipPathUnits="userSpaceOnUse"
       id="clipPath89">
      <rect
         style="fill:none;fill-opacity:0;stroke:#000000;stroke-width:2.2399;stroke-opacity:0"
         id="rect89"
         width="274.98123"
         height="84.749588"
         x="51.211124"
         y="138.74422" />
    </clipPath>
    <clipPath
       clipPathUnits="userSpaceOnUse"
       id="clipPath90">
      <rect
         style="fill:none;fill-opacity:0;stroke:#000000;stroke-width:2.2399;stroke-opacity:0"
         id="rect90"
         width="274.98123"
         height="84.749588"
         x="51.211124"
         y="138.74422" />
    </clipPath>
    <clipPath
       clipPathUnits="userSpaceOnUse"
       id="clipPath91">
      <rect
         style="fill:none;fill-opacity:0;stroke:#000000;stroke-width:2.2399;stroke-opacity:0"
         id="rect91"
         width="274.98123"
         height="84.749588"
         x="51.211124"
         y="138.74422" />
    </clipPath>
    <clipPath
       clipPathUnits="userSpaceOnUse"
       id="clipPath92">
      <rect
         style="fill:none;fill-opacity:0;stroke:#000000;stroke-width:2.2399;stroke-opacity:0"
         id="rect92"
         width="274.98123"
         height="84.749588"
         x="51.211124"
         y="138.74422" />
    </clipPath>
    <clipPath
       clipPathUnits="userSpaceOnUse"
       id="clipPath93">
      <rect
         style="fill:none;fill-opacity:0;stroke:#000000;stroke-width:2.2399;stroke-opacity:0"
         id="rect93"
         width="274.98123"
         height="84.749588"
         x="51.211124"
         y="138.74422" />
    </clipPath>
    <clipPath
       clipPathUnits="userSpaceOnUse"
       id="clipPath94">
      <rect
         style="fill:none;fill-opacity:0;stroke:#000000;stroke-width:2.2399;stroke-opacity:0"
         id="rect94"
         width="274.98123"
         height="84.749588"
         x="51.211124"
         y="138.74422" />
    </clipPath>
    <clipPath
       clipPathUnits="userSpaceOnUse"
       id="clipPath95">
      <rect
         style="fill:none;fill-opacity:0;stroke:#000000;stroke-width:2.2399;stroke-opacity:0"
         id="rect95"
         width="274.98123"
         height="84.749588"
         x="51.211124"
         y="138.74422" />
    </clipPath>
    <clipPath
       clipPathUnits="userSpaceOnUse"
       id="clipPath96">
      <rect
         style="fill:none;fill-opacity:0;stroke:#000000;stroke-width:2.2399;stroke-opacity:0"
         id="rect96"
         width="274.98123"
         height="84.749588"
         x="51.211124"
         y="138.74422" />
    </clipPath>
    <clipPath
       clipPathUnits="userSpaceOnUse"
       id="clipPath97">
      <rect
         style="fill:none;fill-opacity:0;stroke:#000000;stroke-width:2.2399;stroke-opacity:0"
         id="rect97"
         width="274.98123"
         height="84.749588"
         x="51.211124"
         y="138.74422" />
    </clipPath>
    <clipPath
       clipPathUnits="userSpaceOnUse"
       id="clipPath98">
      <rect
         style="fill:none;fill-opacity:0;stroke:#000000;stroke-width:2.2399;stroke-opacity:0"
         id="rect98"
         width="274.98123"
         height="84.749588"
         x="51.211124"
         y="138.74422" />
    </clipPath>
    <clipPath
       clipPathUnits="userSpaceOnUse"
       id="clipPath99">
      <rect
         style="fill:none;fill-opacity:0;stroke:#000000;stroke-width:2.2399;stroke-opacity:0"
         id="rect99"
         width="274.98123"
         height="84.749588"
         x="51.211124"
         y="138.74422" />
    </clipPath>
    <clipPath
       clipPathUnits="userSpaceOnUse"
       id="clipPath100">
      <rect
         style="fill:none;fill-opacity:0;stroke:#000000;stroke-width:2.2399;stroke-opacity:0"
         id="rect100"
         width="274.98123"
         height="84.749588"
         x="51.211124"
         y="138.74422" />
    </clipPath>
    <clipPath
       clipPathUnits="userSpaceOnUse"
       id="clipPath101">
      <rect
         style="fill:none;fill-opacity:0;stroke:#000000;stroke-width:2.2399;stroke-opacity:0"
         id="rect101"
         width="274.98123"
         height="84.749588"
         x="51.211124"
         y="138.74422" />
    </clipPath>
    <clipPath
       clipPathUnits="userSpaceOnUse"
       id="clipPath102">
      <rect
         style="fill:none;fill-opacity:0;stroke:#000000;stroke-width:2.2399;stroke-opacity:0"
         id="rect102"
         width="274.98123"
         height="84.749588"
         x="51.211124"
         y="138.74422" />
    </clipPath>
    <clipPath
       clipPathUnits="userSpaceOnUse"
       id="clipPath103">
      <rect
         style="fill:none;fill-opacity:0;stroke:#000000;stroke-width:2.2399;stroke-opacity:0"
         id="rect103"
         width="274.98123"
         height="84.749588"
         x="51.211124"
         y="138.74422" />
    </clipPath>
  </defs>
  <g
     fill="#000000"
     fill-opacity="1"
     id="g4"
     clip-path="url(#clipPath103)"
     inkscape:export-filename="g4.png"
     inkscape:export-xdpi="96"
     inkscape:export-ydpi="96"
     transform="translate(-53.621639,-142.13436)">
    <g
       transform="translate(55.271965,186.25935)"
       id="g3">
      <g
         id="g2">
        <path
           d="m 3.1875,2.40625 c -1.605469,0 -2.867188,-0.574219 -3.78125,-1.71875 -0.925781,-1.144531 -1.242188,-2.550781 -0.953125,-4.21875 0.28125,-1.65625 1.070313,-3.585938 2.359375,-5.796875 1.289062,-2.207031 2.925781,-4.457031 4.90625,-6.75 1.976562,-2.289063 4.171875,-4.425781 6.578125,-6.40625 2.40625,-1.976563 4.882813,-3.566406 7.4375,-4.765625 2.550781,-1.207031 5.0625,-1.8125 7.53125,-1.8125 1.71875,0 3.035156,0.386719 3.953125,1.15625 0.914062,0.773438 1.226562,1.820312 0.9375,3.140625 -0.230469,1.542969 -0.949219,3.105469 -2.15625,4.6875 -1.199219,1.574219 -2.632812,3.039063 -4.296875,4.390625 -1.65625,1.34375 -3.320313,2.5 -4.984375,3.46875 -0.05469,0.0625 -0.136719,0.09375 -0.25,0.09375 -0.292969,0 -0.4375,-0.171875 -0.4375,-0.515625 0,-0.226563 0.08594,-0.375 0.265625,-0.4375 2.925781,-1.65625 5.390625,-3.570313 7.390625,-5.75 2.007812,-2.1875 3.1875,-4.222656 3.53125,-6.109375 0.34375,-2.0625 -0.976562,-3.09375 -3.953125,-3.09375 -2.355469,0 -4.78125,0.589844 -7.28125,1.765625 -2.492187,1.167969 -4.898437,2.699219 -7.21875,4.59375 -2.324219,1.898437 -4.433594,3.949219 -6.328125,6.15625 -1.886719,2.199219 -3.449219,4.375 -4.6875,6.53125 -1.230469,2.148437 -1.984375,4.023437 -2.265625,5.625 -0.226563,1.375 0.015625,2.523437 0.734375,3.4375 0.71875,0.925781 1.707031,1.390625 2.96875,1.390625 2.40625,0 4.925781,-0.304688 7.5625,-0.90625 2.632812,-0.6015625 5.1875,-1.378906 7.65625,-2.328125 2.46875,-0.945313 4.734375,-1.9375 6.796875,-2.96875 2.0625,-1.03125 3.722656,-1.945313 4.984375,-2.75 h 0.25 c 0.34375,0 0.515625,0.148437 0.515625,0.4375 0,0.167969 -0.08594,0.308594 -0.25,0.421875 -1.261719,0.804688 -2.9375,1.71875 -5.03125,2.75 C 23.578125,-2.84375 21.269531,-1.851562 18.75,-0.90625 16.226562,0.0390625 13.632812,0.828125 10.96875,1.453125 8.300781,2.085938 5.707031,2.40625 3.1875,2.40625 Z m 0,0"
           id="path1" />
      </g>
    </g>
  </g>
  <g
     fill="#000000"
     fill-opacity="1"
     id="g7"
     clip-path="url(#clipPath102)"
     transform="translate(-53.621639,-142.13436)">
    <g
       transform="translate(83.735364,186.25935)"
       id="g6">
      <g
         id="g5">
        <path
           d="m 11.609375,0.09375 c -2.0625,0 -3.09375,-0.863281 -3.09375,-2.59375 0,-0.851562 0.226563,-1.738281 0.6875,-2.65625 0.457031,-0.914062 0.941406,-1.75 1.453125,-2.5 0.125,-0.113281 0.15625,-0.195312 0.09375,-0.25 -0.0625,-0.0625 -0.152344,-0.035156 -0.265625,0.078125 -0.398437,0.230469 -0.96875,0.632813 -1.71875,1.203125 -1.199219,0.867188 -2.53125,1.796875 -4,2.796875 -1.460937,1 -2.851563,1.875 -4.171875,2.625 -1.3125,0.742187 -2.367188,1.109375 -3.171875,1.109375 -1.03125,0 -1.546875,-0.457031 -1.546875,-1.375 0,-0.738281 0.402344,-1.550781 1.203125,-2.4375 0.804687,-0.894531 1.804687,-1.742188 3,-2.546875 1.207031,-0.800781 2.398437,-1.457031 3.578125,-1.96875 1.175781,-0.519531 2.132812,-0.78125 2.875,-0.78125 1.144531,0 1.945312,0.433594 2.40625,1.296875 1.84375,-1.375 2.9375,-2.0625 3.28125,-2.0625 0.394531,0 0.59375,0.199219 0.59375,0.59375 0,0.230469 -0.3125,0.804688 -0.9375,1.71875 -0.523438,0.75 -1.058594,1.601562 -1.609375,2.546875 -0.542969,0.9375 -0.8125,1.808594 -0.8125,2.609375 0,1.03125 0.71875,1.546875 2.15625,1.546875 0.914063,0 2.257813,-0.285156 4.03125,-0.859375 1.78125,-0.570312 3.675781,-1.34375 5.6875,-2.3125 2.007813,-0.976562 3.816406,-2.066406 5.421875,-3.265625 0.05078,-0.0625 0.164062,-0.09375 0.34375,-0.09375 0.28125,0 0.421875,0.148437 0.421875,0.4375 0,0.167969 -0.05859,0.308594 -0.171875,0.421875 -1.605469,1.148438 -3.4375,2.234375 -5.5,3.265625 -2.0625,1.03125 -4.027344,1.867187 -5.890625,2.5 -1.867187,0.636719 -3.3125,0.953125 -4.34375,0.953125 z M -2.578125,-1.125 c 0.6875,0 1.648437,-0.34375 2.875,-1.03125 1.238281,-0.6875 2.554687,-1.515625 3.953125,-2.484375 1.40625,-0.976563 2.679688,-1.894531 3.828125,-2.75 C 7.796875,-7.960938 7.28125,-8.25 6.53125,-8.25 5.789062,-8.25 4.875,-8.003906 3.78125,-7.515625 2.695312,-7.035156 1.625,-6.40625 0.5625,-5.625 c -1.0625,0.773438 -1.953125,1.53125 -2.671875,2.28125 -0.71875,0.742188 -1.078125,1.367188 -1.078125,1.875 0,0.230469 0.203125,0.34375 0.609375,0.34375 z m 0,0"
           id="path4" />
      </g>
    </g>
  </g>
  <g
     fill="#000000"
     fill-opacity="1"
     id="g10"
     clip-path="url(#clipPath101)"
     transform="translate(-53.621639,-142.13436)">
    <g
       transform="translate(108.84507,186.25935)"
       id="g9">
      <g
         id="g8">
        <path
           d="m 1.125,9.28125 c -1.550781,0 -2.328125,-0.746094 -2.328125,-2.234375 0,-0.96875 0.445313,-2.101563 1.328125,-3.390625 0.894531,-1.292969 2.03125,-2.640625 3.40625,-4.046875 1.375,-1.40625 2.75,-2.820313 4.125,-4.25 1.832031,-1.832031 3.460938,-3.523437 4.890625,-5.078125 1.4375,-1.550781 2.15625,-2.726562 2.15625,-3.53125 0,-0.507812 -0.773437,-1.3125 -2.3125,-2.40625 -1.617187,1.667969 -3.324219,3.304688 -5.125,4.90625 -1.804687,1.605469 -3.480469,2.980469 -5.03125,4.125 -0.054687,0.0625 -0.167969,0.09375 -0.34375,0.09375 -0.28125,0 -0.421875,-0.171875 -0.421875,-0.515625 0,-0.113281 0.054688,-0.226563 0.171875,-0.34375 1.71875,-1.257813 3.4375,-2.664063 5.15625,-4.21875 1.71875,-1.550781 3.296875,-3.070313 4.734375,-4.5625 -0.75,-0.507813 -1.34375,-0.9375 -1.78125,-1.28125 -0.429688,-0.34375 -0.640625,-0.71875 -0.640625,-1.125 0,-0.507813 0.316406,-1.148437 0.953125,-1.921875 0.632812,-0.78125 1.421875,-1.53125 2.359375,-2.25 0.945313,-0.71875 1.90625,-1.316406 2.875,-1.796875 0.976563,-0.488281 1.8125,-0.734375 2.5,-0.734375 0.632813,0 0.953125,0.34375 0.953125,1.03125 0,0.574219 -0.53125,1.59375 -1.59375,3.0625 -1.0625,1.460938 -2.421875,3.074219 -4.078125,4.84375 0.738281,0.6875 1.363281,1.25 1.875,1.6875 0.519531,0.429688 0.78125,0.898438 0.78125,1.40625 0,1.03125 -0.777344,2.398438 -2.328125,4.09375 -1.542969,1.6875 -3.230469,3.449219 -5.0625,5.28125 C 6.96875,-2.5 5.617188,-1.140625 4.296875,0.203125 2.984375,1.554688 1.894531,2.820312 1.03125,4 0.164062,5.175781 -0.265625,6.191406 -0.265625,7.046875 -0.265625,7.847656 0.195312,8.25 1.125,8.25 2.320312,8.25 4.050781,7.734375 6.3125,6.703125 8.582031,5.671875 11.078125,4.351562 13.796875,2.75 16.523438,1.144531 19.25,-0.554688 21.96875,-2.359375 c 2.726562,-1.8125 5.148438,-3.488281 7.265625,-5.03125 0.0625,-0.0625 0.148437,-0.09375 0.265625,-0.09375 0.34375,0 0.515625,0.148437 0.515625,0.4375 0,0.167969 -0.05859,0.308594 -0.171875,0.421875 -2.125,1.554688 -4.5625,3.246094 -7.3125,5.078125 C 19.78125,0.285156 17,2.019531 14.1875,3.65625 11.375,5.289062 8.820312,6.632812 6.53125,7.6875 4.238281,8.75 2.4375,9.28125 1.125,9.28125 Z m 11.09375,-26.140625 c 0.625,-0.625 1.320312,-1.394531 2.09375,-2.3125 0.78125,-0.914063 1.5,-1.804687 2.15625,-2.671875 0.65625,-0.863281 1.070312,-1.523438 1.25,-1.984375 0.113281,-0.34375 0,-0.457031 -0.34375,-0.34375 -0.75,0.117187 -1.699219,0.546875 -2.84375,1.296875 -1.148438,0.742188 -2.167969,1.515625 -3.0625,2.328125 -0.886719,0.804687 -1.328125,1.460937 -1.328125,1.96875 0,0.0625 0.15625,0.242187 0.46875,0.53125 0.320313,0.28125 0.859375,0.679687 1.609375,1.1875 z m 0,0"
           id="path7" />
      </g>
    </g>
  </g>
  <g
     fill="#000000"
     fill-opacity="1"
     id="g13"
     clip-path="url(#clipPath100)"
     transform="translate(-53.621639,-142.13436)">
    <g
       transform="translate(136.44855,186.25935)"
       id="g12">
      <g
         id="g11">
        <path
           d="M -2.40625,0.515625 C -2.925781,0.398438 -3.1875,0.113281 -3.1875,-0.34375 c 0,-0.40625 0.390625,-1.191406 1.171875,-2.359375 0.773437,-1.175781 1.730469,-2.4375 2.875,-3.78125 1.144531,-1.351563 2.207031,-2.488281 3.1875,-3.40625 0.050781,-0.050781 0.164063,-0.078125 0.34375,-0.078125 0.34375,0 0.515625,0.171875 0.515625,0.515625 0,0.117187 -0.058594,0.230469 -0.171875,0.34375 C 3.359375,-7.847656 2.09375,-6.5 0.9375,-5.0625 c -1.144531,1.429688 -1.972656,2.601562 -2.484375,3.515625 -0.113281,0.167969 -0.113281,0.28125 0,0.34375 0.117187,0.054687 0.230469,0.054687 0.34375,0 0.460937,-0.289063 1,-0.691406 1.625,-1.203125 C 1.054688,-2.925781 1.832031,-3.554688 2.75,-4.296875 5.957031,-6.929688 8.347656,-8.78125 9.921875,-9.84375 c 1.582031,-1.0625 2.773437,-1.59375 3.578125,-1.59375 1.207031,0 1.8125,0.433594 1.8125,1.296875 0,0.742187 -0.917969,2.515625 -2.75,5.328125 L 11.265625,-2.75 c -0.117187,0.167969 -0.132813,0.296875 -0.04687,0.390625 0.09375,0.085937 0.222656,0.09375 0.390625,0.03125 L 13.5,-3.53125 c 0.976562,-0.570312 1.992188,-1.128906 3.046875,-1.671875 1.0625,-0.539063 1.878906,-0.8125 2.453125,-0.8125 0.75,0 1.125,0.402344 1.125,1.203125 0,0.230469 -0.01563,0.460938 -0.04687,0.6875 -0.03125,0.230469 -0.04687,0.460938 -0.04687,0.6875 -0.05469,0.230469 -0.09375,0.492188 -0.125,0.78125 -0.03125,0.28125 -0.04687,0.5625 -0.04687,0.84375 0,0.460938 0.398437,0.6875 1.203125,0.6875 1.09375,0 2.582031,-0.484375 4.46875,-1.453125 1.894531,-0.976563 4.476562,-2.582031 7.75,-4.8125 0.0625,-0.0625 0.148438,-0.09375 0.265625,-0.09375 0.34375,0 0.515625,0.148437 0.515625,0.4375 0,0.167969 -0.08984,0.308594 -0.265625,0.421875 -3.324219,2.292969 -5.976563,3.945312 -7.953125,4.953125 -1.980469,1 -3.574219,1.5 -4.78125,1.5 -1.429688,0 -2.140625,-0.546875 -2.140625,-1.640625 0,-0.28125 0,-0.578125 0,-0.890625 0,-0.320313 0.02344,-0.597656 0.07813,-0.828125 0.0625,-0.28125 0.101562,-0.519531 0.125,-0.71875 0.03125,-0.207031 0.04687,-0.394531 0.04687,-0.5625 0,-0.175781 -0.117187,-0.265625 -0.34375,-0.265625 -0.28125,0 -0.78125,0.171875 -1.5,0.515625 -0.71875,0.34375 -1.824219,0.976562 -3.3125,1.890625 -1.148437,0.75 -1.980469,1.257813 -2.5,1.515625 -0.511719,0.25 -0.914063,0.375 -1.203125,0.375 -0.398438,0 -0.59375,-0.253906 -0.59375,-0.765625 0,-0.289063 0.140625,-0.707031 0.421875,-1.25 0.289063,-0.539063 0.835937,-1.382813 1.640625,-2.53125 0.914062,-1.4375 1.5625,-2.507813 1.9375,-3.21875 0.375,-0.71875 0.5625,-1.222656 0.5625,-1.515625 0,-0.28125 -0.171875,-0.421875 -0.515625,-0.421875 -0.6875,0 -1.609375,0.359375 -2.765625,1.078125 C 9.851577,-8.695312 8.617203,-7.8125 7.29689,-6.75 5.98439,-5.6875 4.67189,-4.640625 3.35939,-3.609375 1.410156,-2.003906 0.0507812,-0.914062 -0.71875,-0.34375 -1.5,0.226562 -2.0625,0.515625 -2.40625,0.515625 Z m 0,0"
           id="path10" />
      </g>
    </g>
  </g>
  <g
     fill="#000000"
     fill-opacity="1"
     id="g16"
     clip-path="url(#clipPath99)"
     transform="translate(-53.621639,-142.13436)">
    <g
       transform="translate(168.09366,186.25935)"
       id="g15">
      <g
         id="g14">
        <path
           d="m 2.84375,0.265625 c -1.261719,0 -2.25,-0.2304688 -2.96875,-0.6875 C -0.84375,-0.890625 -1.203125,-1.550781 -1.203125,-2.40625 -1.203125,-3.382812 -0.800781,-4.414062 0,-5.5 0.800781,-6.59375 1.757812,-7.539062 2.875,-8.34375 4,-9.144531 5.019531,-9.546875 5.9375,-9.546875 c 1.03125,0 1.546875,0.460937 1.546875,1.375 0,0.574219 -0.390625,1.121094 -1.171875,1.640625 -0.773438,0.511719 -1.558594,0.765625 -2.359375,0.765625 -0.96875,0 -1.683594,-0.113281 -2.140625,-0.34375 -0.574219,0.574219 -1.046875,1.195313 -1.421875,1.859375 -0.375,0.65625 -0.5625,1.273438 -0.5625,1.84375 0,1.085938 1.003906,1.625 3.015625,1.625 0.851562,0 2.195312,-0.253906 4.03125,-0.765625 1.832031,-0.519531 3.878906,-1.265625 6.140625,-2.234375 2.269531,-0.976562 4.378906,-2.179688 6.328125,-3.609375 0.0625,-0.0625 0.148438,-0.09375 0.265625,-0.09375 0.34375,0 0.515625,0.148437 0.515625,0.4375 0,0.167969 -0.08984,0.308594 -0.265625,0.421875 -2,1.492188 -4.152344,2.75 -6.453125,3.78125 -2.292969,1.03125 -4.398438,1.808594 -6.3125,2.328125 -1.917969,0.51953125 -3.335938,0.78125 -4.25,0.78125 z m 1.109375,-6.96875 c 0.457031,0 1,-0.1875 1.625,-0.5625 0.632813,-0.375 0.953125,-0.675781 0.953125,-0.90625 0,-0.226563 -0.199219,-0.34375 -0.59375,-0.34375 -0.523438,0 -1.070312,0.164063 -1.640625,0.484375 -0.574219,0.3125 -1.148437,0.699219 -1.71875,1.15625 0.175781,0.054688 0.378906,0.09375 0.609375,0.125 0.226562,0.03125 0.484375,0.046875 0.765625,0.046875 z m 0,0"
           id="path13" />
      </g>
    </g>
  </g>
  <g
     fill="#000000"
     fill-opacity="1"
     id="g19"
     clip-path="url(#clipPath98)"
     transform="translate(-53.621639,-142.13436)">
    <g
       transform="translate(185.72205,186.25935)"
       id="g18">
      <g
         id="g17">
        <path
           d="m 0.515625,3.78125 c -1.894531,0 -2.84375,-0.828125 -2.84375,-2.484375 0,-1.4375 0.648437,-3.328125 1.9375,-5.671875 1.289063,-2.351562 3.007813,-4.9375 5.15625,-7.75 2.15625,-2.8125 4.578125,-5.707031 7.265625,-8.6875 2.695312,-2.976562 5.460938,-5.859375 8.296875,-8.640625 2.84375,-2.78125 5.554687,-5.273437 8.140625,-7.484375 2.582031,-2.207031 4.890625,-3.957031 6.921875,-5.25 2.03125,-1.289062 3.5625,-1.9375 4.59375,-1.9375 1.257813,0 1.890625,0.578125 1.890625,1.734375 0,0.804687 -0.648438,2.046875 -1.9375,3.734375 -1.28125,1.6875 -3.015625,3.652344 -5.203125,5.890625 -2.179687,2.242187 -4.65625,4.59375 -7.4375,7.0625 -2.773437,2.460937 -5.664063,4.90625 -8.671875,7.34375 -3.011719,2.4375 -5.964844,4.703125 -8.859375,6.796875 -2.898437,2.09375 -5.578125,3.886719 -8.046875,5.375 -2.0625,3.210938 -3.09375,5.703125 -3.09375,7.484375 0,0.570313 0.132812,0.972656 0.390625,1.203125 0.25,0.226562 0.75,0.34375 1.5,0.34375 0.914063,0 2.421875,-0.460938 4.515625,-1.375 2.09375,-0.917969 4.484375,-2.148438 7.171875,-3.703125 2.695313,-1.550781 5.394531,-3.269531 8.09375,-5.15625 0.05078,-0.0625 0.164063,-0.09375 0.34375,-0.09375 0.28125,0 0.421875,0.171875 0.421875,0.515625 0,0.117188 -0.05859,0.230469 -0.171875,0.34375 -2.40625,1.667969 -4.984375,3.304688 -7.734375,4.90625 C 10.40625,-0.113281 7.894531,1.203125 5.625,2.234375 3.363281,3.265625 1.660156,3.78125 0.515625,3.78125 Z m 2.5,-11.859375 c 3.03125,-1.957031 6.28125,-4.253906 9.75,-6.890625 3.46875,-2.632812 6.863281,-5.367188 10.1875,-8.203125 3.332031,-2.84375 6.34375,-5.566406 9.03125,-8.171875 2.695313,-2.613281 4.863281,-4.90625 6.5,-6.875 1.632813,-1.976562 2.453125,-3.367188 2.453125,-4.171875 0,-0.519531 -0.320312,-0.78125 -0.953125,-0.78125 -1.085937,0 -2.730469,0.761719 -4.9375,2.28125 -2.210937,1.523437 -4.746094,3.542969 -7.609375,6.0625 -2.867188,2.523437 -5.820312,5.320313 -8.859375,8.390625 -3.042969,3.0625 -5.929687,6.1875 -8.65625,9.375 -2.71875,3.179688 -5.023437,6.171875 -6.90625,8.984375 z m 0,0"
           id="path16" />
      </g>
    </g>
  </g>
  <g
     fill="#000000"
     fill-opacity="1"
     id="g25"
     clip-path="url(#clipPath97)"
     transform="translate(-53.621639,-142.13436)">
    <g
       transform="translate(223.4726,186.25935)"
       id="g24">
      <g
         id="g23">
        <path
           d="m 39.296875,-7.484375 c 0.34375,0 0.515625,0.148437 0.515625,0.4375 0,0.167969 -0.05859,0.308594 -0.171875,0.421875 -0.742187,0.6875 -1.84375,1.546875 -3.3125,2.578125 C 34.867188,-3.015625 33.25,-1.976562 31.46875,-0.9375 29.695312,0.09375 27.90625,0.960938 26.09375,1.671875 24.289062,2.390625 22.644531,2.75 21.15625,2.75 c -1.667969,0 -3.074219,-0.777344 -4.21875,-2.328125 -1.148438,-1.539063 -2.179688,-3.113281 -3.09375,-4.71875 -0.230469,-0.457031 -0.460938,-0.882813 -0.6875,-1.28125 -0.230469,-0.40625 -0.484375,-0.8125 -0.765625,-1.21875 -0.636719,0 -1.296875,-0.140625 -1.984375,-0.421875 -1.78125,2.292969 -3.34375,4.445312 -4.6875,6.453125 -1.34375,2 -2.246094,3.628906 -2.703125,4.890625 0.164063,0 0.25,0.171875 0.25,0.515625 -0.054687,0.40625 -0.152344,0.78125 -0.296875,1.125 -0.148438,0.34375 -0.335938,0.539063 -0.5625,0.59375 -0.28125,0.113281 -0.511719,0.03125 -0.6875,-0.25 L 1.640625,5.765625 c 0,-0.117187 0.00781,-0.230469 0.03125,-0.34375 C 1.703125,5.304688 1.75,5.132812 1.8125,4.90625 1.976562,3.757812 2.773438,2.039062 4.203125,-0.25 c 1.4375,-2.300781 3.1875,-4.738281 5.25,-7.3125 C 8.421875,-8.132812 7.90625,-8.738281 7.90625,-9.375 c 0,-0.738281 0.398438,-1.109375 1.203125,-1.109375 0.800781,0 1.492187,0.257813 2.078125,0.765625 1.832031,-2.238281 3.734375,-4.398438 5.703125,-6.484375 1.976563,-2.09375 3.859375,-3.890625 5.640625,-5.390625 0.113281,-0.113281 0.203125,-0.171875 0.265625,-0.171875 0.34375,0 0.515625,0.179687 0.515625,0.53125 0,0.117187 -0.05859,0.230469 -0.171875,0.34375 -1.78125,1.492187 -3.648437,3.28125 -5.59375,5.375 -1.949219,2.085937 -3.839844,4.246094 -5.671875,6.484375 0.34375,0.34375 0.6875,0.777344 1.03125,1.296875 H 13.25 c 3.144531,0 6.125,-0.484375 8.9375,-1.453125 2.8125,-0.976562 5.273438,-2.269531 7.390625,-3.875 2.125,-1.613281 3.800781,-3.363281 5.03125,-5.25 1.238281,-1.894531 1.859375,-3.734375 1.859375,-5.515625 0,-3.03125 -2.09375,-4.546875 -6.28125,-4.546875 -2.929688,0 -6.027344,0.589844 -9.296875,1.765625 -3.261719,1.167969 -6.328125,2.730469 -9.203125,4.6875 -2.867188,1.949219 -5.125,4.09375 -6.78125,6.4375 -0.0625,0.179687 -0.210938,0.265625 -0.4375,0.265625 -0.28125,0 -0.421875,-0.171875 -0.421875,-0.515625 0,-0.113281 0.023437,-0.203125 0.078125,-0.265625 1.71875,-2.457031 4.039062,-4.691406 6.96875,-6.703125 2.925781,-2.007813 6.09375,-3.628906 9.5,-4.859375 3.414062,-1.226562 6.613281,-1.84375 9.59375,-1.84375 4.8125,0 7.21875,1.859375 7.21875,5.578125 0,1.898437 -0.632812,3.851563 -1.890625,5.859375 -1.261719,2 -2.996094,3.851562 -5.203125,5.546875 -2.210938,1.6875 -4.746094,3.046875 -7.609375,4.078125 -2.867187,1.03125 -5.902344,1.578125 -9.109375,1.640625 l 1.109375,1.890625 c 0.914063,1.605469 1.875,3.09375 2.875,4.46875 1.007813,1.375 2.203125,2.0625 3.578125,2.0625 1.375,0 2.9375,-0.34375 4.6875,-1.03125 1.75,-0.6875 3.484375,-1.53125 5.203125,-2.53125 1.71875,-1.007812 3.289063,-2.015625 4.71875,-3.015625 1.4375,-1 2.53125,-1.84375 3.28125,-2.53125 0.05078,-0.0625 0.132813,-0.09375 0.25,-0.09375 z M 10.0625,-8.421875 c 0.226562,-0.226563 0.398438,-0.429687 0.515625,-0.609375 -0.230469,-0.113281 -0.460937,-0.226562 -0.6875,-0.34375 -0.230469,-0.113281 -0.492187,-0.171875 -0.78125,-0.171875 -0.167969,0 -0.25,0.058594 -0.25,0.171875 0,0.34375 0.398437,0.664062 1.203125,0.953125 z m 0.953125,0.34375 c 0.34375,0.117187 0.539063,0.171875 0.59375,0.171875 -0.05469,-0.113281 -0.109375,-0.195312 -0.171875,-0.25 -0.05469,-0.0625 -0.109375,-0.125 -0.171875,-0.1875 z m 0,0"
           id="path22" />
      </g>
    </g>
  </g>
  <g
     fill="#000000"
     fill-opacity="1"
     id="g28"
     clip-path="url(#clipPath96)"
     transform="translate(-53.621639,-142.13436)">
    <g
       transform="translate(260.87921,186.25935)"
       id="g27">
      <g
         id="g26">
        <path
           d="m -0.515625,0.6875 c -1.09375,0 -1.640625,-0.6640625 -1.640625,-1.984375 0,-1.195313 0.507812,-2.441406 1.515625,-3.734375 1,-1.289062 2.242187,-2.394531 3.734375,-3.3125 0,-0.050781 0.015625,-0.078125 0.046875,-0.078125 0.03125,0 0.046875,-0.03125 0.046875,-0.09375 0.226562,-0.457031 0.515625,-0.628906 0.859375,-0.515625 0.113281,0.0625 0.226563,0.0625 0.34375,0 0.394531,-0.226562 0.796875,-0.367188 1.203125,-0.421875 0,-0.0625 0.054688,-0.09375 0.171875,-0.09375 0.28125,0 0.421875,0.171875 0.421875,0.515625 0,0.292969 -0.117188,0.4375 -0.34375,0.4375 -0.054688,0.054688 -0.109375,0.078125 -0.171875,0.078125 -0.054687,0 -0.109375,0.03125 -0.171875,0.09375 -0.167969,0.054687 -0.167969,0.136719 0,0.25 2.351562,1.375 4.890625,2.136719 7.609375,2.28125 2.726563,0.148437 5.125,-0.382813 7.1875,-1.59375 h 0.25 c 0.34375,0 0.515625,0.148437 0.515625,0.4375 0,0.167969 -0.117188,0.308594 -0.34375,0.421875 -2.230469,1.261719 -4.839844,1.824219 -7.828125,1.6875 -2.980469,-0.144531 -5.730469,-0.992188 -8.25,-2.546875 -0.167969,-0.164063 -0.25,-0.109375 -0.25,0.171875 0.164063,1.09375 0.019531,2.273438 -0.4375,3.53125 C 3.492188,-2.519531 2.863281,-1.457031 2.0625,-0.59375 1.257812,0.257812 0.398438,0.6875 -0.515625,0.6875 Z m 0,-0.953125 c 0.6875,0 1.359375,-0.398437 2.015625,-1.203125 0.664062,-0.800781 1.195312,-1.757812 1.59375,-2.875 C 3.5,-5.457031 3.613281,-6.472656 3.4375,-7.390625 2.125,-6.585938 1.019531,-5.613281 0.125,-4.46875 c -0.882812,1.148438 -1.328125,2.203125 -1.328125,3.171875 0,0.6875 0.230469,1.03125 0.6875,1.03125 z m 0,0"
           id="path25" />
      </g>
    </g>
  </g>
  <g
     fill="#000000"
     fill-opacity="1"
     id="g31"
     clip-path="url(#clipPath95)"
     transform="translate(-53.621639,-142.13436)">
    <g
       transform="translate(279.45351,186.25935)"
       id="g30">
      <g
         id="g29">
        <path
           d="M -0.34375,4.125 C -1.320312,4.125 -1.8125,3.753906 -1.8125,3.015625 -1.8125,2.441406 -1.289062,1.820312 -0.25,1.15625 0.78125,0.5 2.007812,-0.140625 3.4375,-0.765625 c 1.4375,-0.632813 2.726562,-1.15625 3.875,-1.5625 0.113281,0 0.171875,-0.023437 0.171875,-0.078125 0.113281,-0.226562 0.238281,-0.441406 0.375,-0.640625 0.144531,-0.207031 0.160156,-0.367187 0.046875,-0.484375 -0.054688,-0.113281 -0.46875,-0.125 -1.25,-0.03125 -0.773438,0.085938 -1.328125,0.152344 -1.671875,0.203125 -0.511719,0.0625 -1.011719,0.136719 -1.5,0.21875 -0.492187,0.085937 -0.964844,0.125 -1.421875,0.125 C 0.6875,-3.015625 0,-3.472656 0,-4.390625 0,-5.242188 0.457031,-6.15625 1.375,-7.125 2.289062,-8.101562 3.378906,-8.953125 4.640625,-9.671875 5.898438,-10.390625 7.046875,-10.75 8.078125,-10.75 c 1.03125,0 1.546875,0.433594 1.546875,1.296875 0,0.167969 -0.027344,0.28125 -0.078125,0.34375 -0.292969,1.148437 -0.898437,1.976563 -1.8125,2.484375 -0.054687,0.0625 -0.136719,0.09375 -0.25,0.09375 -0.34375,0 -0.515625,-0.171875 -0.515625,-0.515625 0,-0.226563 0.082031,-0.375 0.25,-0.4375 0.289062,-0.164063 0.59375,-0.445313 0.90625,-0.84375 0.3125,-0.40625 0.46875,-0.753906 0.46875,-1.046875 0,-0.28125 -0.171875,-0.421875 -0.515625,-0.421875 -0.855469,0 -1.828125,0.320313 -2.921875,0.953125 -1.085938,0.625 -2.042969,1.355469 -2.875,2.1875 -0.835938,0.824219 -1.25,1.578125 -1.25,2.265625 0,0.292969 0.34375,0.4375 1.03125,0.4375 0.40625,0 0.847656,-0.039063 1.328125,-0.125 0.488281,-0.09375 0.960937,-0.164063 1.421875,-0.21875 0.457031,-0.113281 0.898438,-0.195313 1.328125,-0.25 0.4375,-0.0625 0.828125,-0.09375 1.171875,-0.09375 1.082031,0 1.625,0.402344 1.625,1.203125 -0.054688,0.054688 -0.078125,0.109375 -0.078125,0.171875 0,0.054687 -0.03125,0.136719 -0.09375,0.25 0,0.230469 0.054687,0.289063 0.171875,0.171875 1.03125,-0.28125 2.132812,-0.609375 3.3125,-0.984375 1.175781,-0.375 2.367188,-0.734375 3.578125,-1.078125 1.488281,-0.457031 2.976563,-0.898438 4.46875,-1.328125 1.488281,-0.425781 2.863281,-0.84375 4.125,-1.25 h 0.171875 c 0.289062,0 0.4375,0.148437 0.4375,0.4375 0,0.28125 -0.117188,0.453125 -0.34375,0.515625 -1.261719,0.398438 -2.640625,0.8125 -4.140625,1.25 -1.492187,0.429688 -2.980469,0.871094 -4.46875,1.328125 -1.429687,0.398437 -2.820313,0.8125 -4.171875,1.25 -1.34375,0.429687 -2.589844,0.8125 -3.734375,1.15625 L 7.90625,-1.375 C 7.050781,-0.113281 5.820312,1.113281 4.21875,2.3125 2.613281,3.519531 1.09375,4.125 -0.34375,4.125 Z m 0,-1.03125 c 0.976562,0 2.050781,-0.359375 3.21875,-1.078125 1.175781,-0.710937 2.195312,-1.527344 3.0625,-2.453125 0.164062,-0.164062 0.109375,-0.25 -0.171875,-0.25 -1.78125,0.75 -3.335937,1.476562 -4.65625,2.1875 -1.3125,0.71875 -1.96875,1.191406 -1.96875,1.421875 0,0.113281 0.171875,0.171875 0.515625,0.171875 z m 0,0"
           id="path28" />
      </g>
    </g>
  </g>
  <g
     fill="#000000"
     fill-opacity="1"
     id="g34"
     clip-path="url(#clipPath94)"
     transform="translate(-53.621639,-142.13436)">
    <g
       transform="translate(302.06944,186.25935)"
       id="g33">
      <g
         id="g32">
        <path
           d="m 2.84375,0.265625 c -1.261719,0 -2.25,-0.2304688 -2.96875,-0.6875 C -0.84375,-0.890625 -1.203125,-1.550781 -1.203125,-2.40625 -1.203125,-3.382812 -0.800781,-4.414062 0,-5.5 0.800781,-6.59375 1.757812,-7.539062 2.875,-8.34375 4,-9.144531 5.019531,-9.546875 5.9375,-9.546875 c 1.03125,0 1.546875,0.460937 1.546875,1.375 0,0.574219 -0.390625,1.121094 -1.171875,1.640625 -0.773438,0.511719 -1.558594,0.765625 -2.359375,0.765625 -0.96875,0 -1.683594,-0.113281 -2.140625,-0.34375 -0.574219,0.574219 -1.046875,1.195313 -1.421875,1.859375 -0.375,0.65625 -0.5625,1.273438 -0.5625,1.84375 0,1.085938 1.003906,1.625 3.015625,1.625 0.851562,0 2.195312,-0.253906 4.03125,-0.765625 1.832031,-0.519531 3.878906,-1.265625 6.140625,-2.234375 2.269531,-0.976562 4.378906,-2.179688 6.328125,-3.609375 0.0625,-0.0625 0.148438,-0.09375 0.265625,-0.09375 0.34375,0 0.515625,0.148437 0.515625,0.4375 0,0.167969 -0.08984,0.308594 -0.265625,0.421875 -2,1.492188 -4.152344,2.75 -6.453125,3.78125 -2.292969,1.03125 -4.398438,1.808594 -6.3125,2.328125 -1.917969,0.51953125 -3.335938,0.78125 -4.25,0.78125 z m 1.109375,-6.96875 c 0.457031,0 1,-0.1875 1.625,-0.5625 0.632813,-0.375 0.953125,-0.675781 0.953125,-0.90625 0,-0.226563 -0.199219,-0.34375 -0.59375,-0.34375 -0.523438,0 -1.070312,0.164063 -1.640625,0.484375 -0.574219,0.3125 -1.148437,0.699219 -1.71875,1.15625 0.175781,0.054688 0.378906,0.09375 0.609375,0.125 0.226562,0.03125 0.484375,0.046875 0.765625,0.046875 z m 0,0"
           id="path31" />
      </g>
    </g>
  </g>
  <g
     fill="#000000"
     fill-opacity="1"
     id="g37"
     clip-path="url(#clipPath93)"
     transform="translate(-53.621639,-142.13436)">
    <g
       transform="translate(104.24491,219.17735)"
       id="g36">
      <g
         id="g35">
        <path
           d="m 8.671875,-15.25 c -0.023437,-0.0078 -0.03125,-0.01563 -0.03125,-0.01563 -0.042969,-0.03125 -0.046875,-0.0625 -0.015625,-0.09375 0.03125,-0.03906 0.054688,-0.04687 0.078125,-0.01563 0,0 0.00781,0 0.03125,0 1.195313,0.5 2.179687,1.433594 2.953125,2.796875 0.0078,0.03125 0.0039,0.05859 -0.01563,0.07813 l -0.40625,0.390625 c -0.02344,0.01172 -0.03906,0.01563 -0.04687,0.01563 0,0 -0.01172,0 -0.03125,0 -0.02344,0 -0.03125,-0.01563 -0.03125,-0.04687 -0.09375,-0.3125 -0.226562,-0.65625 -0.390625,-1.03125 -0.15625,-0.382813 -0.40625,-0.757813 -0.75,-1.125 -0.335937,-0.363281 -0.78125,-0.679687 -1.34375,-0.953125 z m 2.59375,11.75 0.40625,0.40625 c 0.01953,0.03125 0.02344,0.0625 0.01563,0.09375 -0.761719,1.335938 -1.730469,2.261719 -2.90625,2.78125 0,0 -0.011719,0 -0.03125,0 0,0.011719 -0.00781,0.015625 -0.015625,0.015625 H 8.70313 c 0,0 -0.00781,0.011719 -0.015625,0.03125 -0.59375,0.25 -1.210938,0.375 -1.84375,0.375 L 6.6875,0.171875 C 5.875,0.160156 5.113281,-0.0546875 4.40625,-0.484375 c -0.710938,-0.425781 -1.335938,-1 -1.875,-1.71875 -0.542969,-0.726563 -0.964844,-1.566406 -1.265625,-2.515625 -0.292969,-0.957031 -0.4375,-1.984375 -0.4375,-3.078125 0,-1.082031 0.144531,-2.101563 0.4375,-3.0625 0.300781,-0.957031 0.722656,-1.796875 1.265625,-2.515625 0.539062,-0.726562 1.164062,-1.300781 1.875,-1.71875 0.707031,-0.425781 1.46875,-0.65625 2.28125,-0.6875 h 0.15625 c 0.0625,0 0.09375,0.02734 0.09375,0.07813 0,0.05469 -0.03125,0.07813 -0.09375,0.07813 h -0.125 c -0.929688,0.04297 -1.757812,0.414062 -2.484375,1.109375 -0.71875,0.6875 -1.292969,1.621094 -1.71875,2.796875 C 2.085938,-10.550781 1.875,-9.242188 1.875,-7.796875 c 0,1.449219 0.210938,2.757813 0.640625,3.921875 0.425781,1.167969 1,2.105469 1.71875,2.8125 0.726563,0.699219 1.546875,1.06640625 2.453125,1.109375 h 0.15625 c 0.632812,0 1.25,-0.1328125 1.84375,-0.40625 0,0 0.00391,0 0.015625,0 0.550781,-0.269531 0.992187,-0.585937 1.328125,-0.953125 0.332031,-0.363281 0.578125,-0.734375 0.734375,-1.109375 0.164063,-0.375 0.296875,-0.71875 0.390625,-1.03125 0,-0.03125 0.0078,-0.050781 0.03125,-0.0625 0.03125,0 0.05469,0.00781 0.07813,0.015625 z m 0,0"
           id="path34" stroke="#000000" stroke-width="0.4" stroke-linejoin="round" stroke-linecap="round" />
      </g>
    </g>
  </g>
  <g
     fill="#000000"
     fill-opacity="1"
     id="g40"
     clip-path="url(#clipPath92)"
     transform="translate(-53.621639,-142.13436)">
    <g
       transform="translate(123.83234,219.17735)"
       id="g39">
      <g
         id="g38">
        <path
           d="m 6.984375,-15.78125 c 0.800781,0.03125 1.554687,0.261719 2.265625,0.6875 0.71875,0.417969 1.347656,0.996094 1.890625,1.734375 0.539063,0.730469 0.960937,1.574219 1.265625,2.53125 0.300781,0.949219 0.453125,1.960937 0.453125,3.03125 0,1.074219 -0.152344,2.089844 -0.453125,3.046875 -0.304688,0.960938 -0.726562,1.804688 -1.265625,2.53125 C 10.597656,-1.488281 9.96875,-0.910156 9.25,-0.484375 8.539062,-0.0546875 7.785156,0.160156 6.984375,0.171875 c -0.011719,0 -0.015625,0 -0.015625,0 C 6.9375,0.191406 6.890625,0.203125 6.828125,0.203125 6.765625,0.203125 6.71875,0.191406 6.6875,0.171875 5.882812,0.160156 5.125,-0.0546875 4.40625,-0.484375 3.695312,-0.910156 3.070312,-1.488281 2.53125,-2.21875 1.988281,-2.945312 1.566406,-3.789062 1.265625,-4.75 0.960938,-5.707031 0.8125,-6.722656 0.8125,-7.796875 c 0,-1.070313 0.148438,-2.082031 0.453125,-3.03125 0.300781,-0.957031 0.722656,-1.800781 1.265625,-2.53125 0.539062,-0.738281 1.164062,-1.316406 1.875,-1.734375 0.71875,-0.425781 1.476562,-0.65625 2.28125,-0.6875 0.09375,0 0.1875,0 0.28125,0 0.00781,0 0.015625,0 0.015625,0 z M 6.96875,0.046875 c 0.707031,-0.03125 1.367188,-0.265625 1.984375,-0.703125 0.613281,-0.445312 1.140625,-1.050781 1.578125,-1.8125 0.4375,-0.757812 0.765625,-1.640625 0.984375,-2.640625 0.1875,-0.84375 0.28125,-1.738281 0.28125,-2.6875 0,-1.445313 -0.214844,-2.753906 -0.640625,-3.921875 -0.417969,-1.175781 -0.992188,-2.113281 -1.71875,-2.8125 -0.71875,-0.695312 -1.542969,-1.0625 -2.46875,-1.09375 -0.03125,0 -0.078125,0 -0.140625,0 -0.0625,0 -0.109375,0 -0.140625,0 -0.742188,0.03125 -1.429688,0.28125 -2.0625,0.75 -0.625,0.46875 -1.15625,1.117188 -1.59375,1.9375 -0.4375,0.824219 -0.757812,1.761719 -0.953125,2.8125 -0.148437,0.75 -0.21875,1.527344 -0.21875,2.328125 0,0.273437 0.00391,0.542969 0.015625,0.8125 0.019531,0.136719 0.035156,0.261719 0.046875,0.375 0.019531,0.273437 0.050781,0.527344 0.09375,0.765625 0.0625,0.375 0.132813,0.742188 0.21875,1.09375 0.15625,0.585938 0.34375,1.121094 0.5625,1.609375 0.09375,0.210937 0.191406,0.40625 0.296875,0.59375 0.101562,0.179687 0.210938,0.351563 0.328125,0.515625 0.46875,0.6875 1,1.210938 1.59375,1.5625 C 5.160156,-0.375 5.3125,-0.300781 5.46875,-0.25 c 0.394531,0.1796875 0.800781,0.2734375 1.21875,0.296875 0.03125,0 0.078125,0 0.140625,0 0.070313,0 0.117187,0 0.140625,0 z m 0,0"
           id="path37" stroke="#000000" stroke-width="0.4" stroke-linejoin="round" stroke-linecap="round" />
      </g>
    </g>
  </g>
  <g
     fill="#000000"
     fill-opacity="1"
     id="g43"
     clip-path="url(#clipPath91)"
     transform="translate(-53.621639,-142.13436)">
    <g
       transform="translate(144.85227,219.17735)"
       id="g42">
      <g
         id="g41">
        <path
           d="m 2.703125,-15.671875 c 0.0625,0 0.09375,0.03125 0.09375,0.09375 0,0.04297 -0.03125,0.0625 -0.09375,0.0625 -0.21875,0 -0.328125,0.109375 -0.328125,0.328125 V 0 c 0,0.0390625 -0.023438,0.0625 -0.0625,0.0625 H 1.171875 C 1.117188,0.0625 1.09375,0.0390625 1.09375,0 c 0,-0.0390625 0.023438,-0.0625 0.078125,-0.0625 0.226563,0 0.34375,-0.117188 0.34375,-0.359375 V -15.1875 c 0,-0.21875 -0.117187,-0.328125 -0.34375,-0.328125 -0.054687,0 -0.078125,-0.01953 -0.078125,-0.0625 0,-0.0625 0.023438,-0.09375 0.078125,-0.09375 z M 9.453125,-1 c 0.050781,0 0.078125,0.027344 0.078125,0.078125 V 0 c 0,0.0390625 -0.027344,0.0625 -0.078125,0.0625 H 6 c 0,0 -0.117188,0 -0.34375,0 -0.21875,0 -0.480469,0 -0.78125,0 -0.292969,0 -0.558594,0 -0.796875,0 -0.230469,0 -0.34375,0 -0.34375,0 -0.042969,0 -0.0625,-0.0234375 -0.0625,-0.0625 0,-0.0390625 0.019531,-0.0625 0.0625,-0.0625 H 6 c 1,0 1.8125,-0.09375 2.4375,-0.28125 C 9.0625,-0.53125 9.375,-0.722656 9.375,-0.921875 9.375,-0.972656 9.398438,-1 9.453125,-1 Z m 0,0"
           id="path40" stroke="#000000" stroke-width="0.4" stroke-linejoin="round" stroke-linecap="round" />
      </g>
    </g>
  </g>
  <g
     fill="#000000"
     fill-opacity="1"
     id="g46"
     clip-path="url(#clipPath90)"
     transform="translate(-53.621639,-142.13436)">
    <g
       transform="translate(161.75375,219.17735)"
       id="g45">
      <g
         id="g44">
        <path
           d="m 2.703125,-15.671875 c 0.0625,0 0.09375,0.03125 0.09375,0.09375 0,0.04297 -0.03125,0.0625 -0.09375,0.0625 -0.21875,0 -0.328125,0.109375 -0.328125,0.328125 V 0 c 0,0.0390625 -0.023438,0.0625 -0.0625,0.0625 H 1.171875 C 1.117188,0.0625 1.09375,0.0390625 1.09375,0 c 0,-0.0390625 0.023438,-0.0625 0.078125,-0.0625 0.226563,0 0.34375,-0.117188 0.34375,-0.359375 V -15.1875 c 0,-0.21875 -0.117187,-0.328125 -0.34375,-0.328125 -0.054687,0 -0.078125,-0.01953 -0.078125,-0.0625 0,-0.0625 0.023438,-0.09375 0.078125,-0.09375 z M 9.453125,-1 c 0.050781,0 0.078125,0.027344 0.078125,0.078125 V 0 c 0,0.0390625 -0.027344,0.0625 -0.078125,0.0625 H 6 c 0,0 -0.117188,0 -0.34375,0 -0.21875,0 -0.480469,0 -0.78125,0 -0.292969,0 -0.558594,0 -0.796875,0 -0.230469,0 -0.34375,0 -0.34375,0 -0.042969,0 -0.0625,-0.0234375 -0.0625,-0.0625 0,-0.0390625 0.019531,-0.0625 0.0625,-0.0625 H 6 c 1,0 1.8125,-0.09375 2.4375,-0.28125 C 9.0625,-0.53125 9.375,-0.722656 9.375,-0.921875 9.375,-0.972656 9.398438,-1 9.453125,-1 Z m 0,0"
           id="path43" stroke="#000000" stroke-width="0.4" stroke-linejoin="round" stroke-linecap="round" />
      </g>
    </g>
  </g>
  <g
     fill="#000000"
     fill-opacity="1"
     id="g49"
     clip-path="url(#clipPath89)"
     transform="translate(-53.621639,-142.13436)">
    <g
       transform="translate(178.65523,219.17735)"
       id="g48">
      <g
         id="g47">
        <path
           d="m 6.9375,-8.21875 c 0,-0.039062 0.03125,-0.0625 0.09375,-0.0625 0.039062,0 0.0625,0.023438 0.0625,0.0625 v 0.828125 c 0,0.0625 -0.023438,0.09375 -0.0625,0.09375 -0.0625,0 -0.09375,-0.03125 -0.09375,-0.09375 0,-0.21875 -0.109375,-0.328125 -0.328125,-0.328125 H 3.71875 c -0.042969,0 -0.0625,-0.023438 -0.0625,-0.078125 0,-0.050781 0.019531,-0.078125 0.0625,-0.078125 h 2.890625 c 0.21875,0 0.328125,-0.113281 0.328125,-0.34375 z m 2.4375,-6.453125 c 0,-0.1875 -0.3125,-0.375 -0.9375,-0.5625 C 7.8125,-15.421875 7,-15.515625 6,-15.515625 H 2.375 V -0.0625 H 6 c 1,0 1.8125,-0.09375 2.4375,-0.28125 C 9.0625,-0.53125 9.375,-0.722656 9.375,-0.921875 9.375,-0.972656 9.398438,-1 9.453125,-1 9.503906,-1 9.53125,-0.972656 9.53125,-0.921875 V 0 c 0,0.0390625 -0.027344,0.0625 -0.078125,0.0625 H 2.3125 c -0.023438,0 -0.03125,0 -0.03125,0 H 1.171875 C 1.117188,0.0625 1.09375,0.0390625 1.09375,0 c 0,-0.0390625 0.023438,-0.0625 0.078125,-0.0625 0.226563,0 0.34375,-0.117188 0.34375,-0.359375 V -15.1875 c 0,-0.21875 -0.117187,-0.328125 -0.34375,-0.328125 -0.054687,0 -0.078125,-0.01953 -0.078125,-0.0625 0,-0.0625 0.023438,-0.09375 0.078125,-0.09375 H 2.28125 c 0,0 0.00391,0 0.015625,0 0.00781,0 0.015625,0 0.015625,0 h 7.140625 c 0.050781,0 0.078125,0.03125 0.078125,0.09375 v 0.90625 c 0,0.05469 -0.027344,0.07813 -0.078125,0.07813 -0.054687,0 -0.078125,-0.02344 -0.078125,-0.07813 z m 0,0"
           id="path46" stroke="#000000" stroke-width="0.4" stroke-linejoin="round" stroke-linecap="round" />
      </g>
    </g>
  </g>
  <g
     fill="#000000"
     fill-opacity="1"
     id="g52"
     clip-path="url(#clipPath88)"
     transform="translate(-53.621639,-142.13436)">
    <g
       transform="translate(195.87008,219.17735)"
       id="g51">
      <g
         id="g50">
        <path
           d="m 8.671875,-15.25 c -0.023437,-0.0078 -0.03125,-0.01563 -0.03125,-0.01563 -0.042969,-0.03125 -0.046875,-0.0625 -0.015625,-0.09375 0.03125,-0.03906 0.054688,-0.04687 0.078125,-0.01563 0,0 0.00781,0 0.03125,0 1.195313,0.5 2.179687,1.433594 2.953125,2.796875 0.0078,0.03125 0.0039,0.05859 -0.01563,0.07813 l -0.40625,0.390625 c -0.02344,0.01172 -0.03906,0.01563 -0.04687,0.01563 0,0 -0.01172,0 -0.03125,0 -0.02344,0 -0.03125,-0.01563 -0.03125,-0.04687 -0.09375,-0.3125 -0.226562,-0.65625 -0.390625,-1.03125 -0.15625,-0.382813 -0.40625,-0.757813 -0.75,-1.125 -0.335937,-0.363281 -0.78125,-0.679687 -1.34375,-0.953125 z m 2.59375,11.75 0.40625,0.40625 c 0.01953,0.03125 0.02344,0.0625 0.01563,0.09375 -0.761719,1.335938 -1.730469,2.261719 -2.90625,2.78125 0,0 -0.011719,0 -0.03125,0 0,0.011719 -0.00781,0.015625 -0.015625,0.015625 H 8.70313 c 0,0 -0.00781,0.011719 -0.015625,0.03125 -0.59375,0.25 -1.210938,0.375 -1.84375,0.375 L 6.6875,0.171875 C 5.875,0.160156 5.113281,-0.0546875 4.40625,-0.484375 c -0.710938,-0.425781 -1.335938,-1 -1.875,-1.71875 -0.542969,-0.726563 -0.964844,-1.566406 -1.265625,-2.515625 -0.292969,-0.957031 -0.4375,-1.984375 -0.4375,-3.078125 0,-1.082031 0.144531,-2.101563 0.4375,-3.0625 0.300781,-0.957031 0.722656,-1.796875 1.265625,-2.515625 0.539062,-0.726562 1.164062,-1.300781 1.875,-1.71875 0.707031,-0.425781 1.46875,-0.65625 2.28125,-0.6875 h 0.15625 c 0.0625,0 0.09375,0.02734 0.09375,0.07813 0,0.05469 -0.03125,0.07813 -0.09375,0.07813 h -0.125 c -0.929688,0.04297 -1.757812,0.414062 -2.484375,1.109375 -0.71875,0.6875 -1.292969,1.621094 -1.71875,2.796875 C 2.085938,-10.550781 1.875,-9.242188 1.875,-7.796875 c 0,1.449219 0.210938,2.757813 0.640625,3.921875 0.425781,1.167969 1,2.105469 1.71875,2.8125 0.726563,0.699219 1.546875,1.06640625 2.453125,1.109375 h 0.15625 c 0.632812,0 1.25,-0.1328125 1.84375,-0.40625 0,0 0.00391,0 0.015625,0 0.550781,-0.269531 0.992187,-0.585937 1.328125,-0.953125 0.332031,-0.363281 0.578125,-0.734375 0.734375,-1.109375 0.164063,-0.375 0.296875,-0.71875 0.390625,-1.03125 0,-0.03125 0.0078,-0.050781 0.03125,-0.0625 0.03125,0 0.05469,0.00781 0.07813,0.015625 z m 0,0"
           id="path49" stroke="#000000" stroke-width="0.4" stroke-linejoin="round" stroke-linecap="round" />
      </g>
    </g>
  </g>
  <g
     fill="#000000"
     fill-opacity="1"
     id="g55"
     clip-path="url(#clipPath87)"
     transform="translate(-53.621639,-142.13436)">
    <g
       transform="translate(215.45751,219.17735)"
       id="g54">
      <g
         id="g53">
        <path
           d="m 10.09375,-15.671875 c 0.05078,0 0.07813,0.03125 0.07813,0.09375 v 0.90625 c 0,0.05469 -0.02734,0.07813 -0.07813,0.07813 -0.04297,0 -0.0625,-0.02344 -0.0625,-0.07813 0,-0.1875 -0.3125,-0.375 -0.9375,-0.5625 -0.625,-0.1875 -1.4375,-0.28125 -2.4375,-0.28125 h -1.125 v 15.09375 c 0,0.242187 0.109375,0.359375 0.328125,0.359375 0.050781,0 0.078125,0.0234375 0.078125,0.0625 0,0.0390625 -0.027344,0.0625 -0.078125,0.0625 H 4.328125 C 4.273438,0.0625 4.25,0.0390625 4.25,0 c 0,-0.0390625 0.023438,-0.0625 0.078125,-0.0625 0.226563,0 0.34375,-0.117188 0.34375,-0.359375 v -15.09375 H 3.5625 c -1,0 -1.820312,0.09375 -2.453125,0.28125 -0.625,0.1875 -0.9375,0.375 -0.9375,0.5625 0,0.05469 -0.027344,0.07813 -0.078125,0.07813 -0.0546875,0 -0.078125,-0.02344 -0.078125,-0.07813 v -0.90625 c 0,-0.0625 0.0234375,-0.09375 0.078125,-0.09375 z m 0,0"
           id="path52" stroke="#000000" stroke-width="0.4" stroke-linejoin="round" stroke-linecap="round" />
      </g>
    </g>
  </g>
  <g
     fill="#000000"
     fill-opacity="1"
     id="g58"
     clip-path="url(#clipPath86)"
     transform="translate(-53.621639,-142.13436)">
    <g
       transform="translate(233.0081,219.17735)"
       id="g57">
      <g
         id="g56">
        <path
           d="m 2.703125,-0.0625 c 0.0625,0 0.09375,0.0234375 0.09375,0.0625 0,0.0390625 -0.03125,0.0625 -0.09375,0.0625 H 1.171875 C 1.117188,0.0625 1.09375,0.0390625 1.09375,0 c 0,-0.0390625 0.023438,-0.0625 0.078125,-0.0625 0.226563,0 0.34375,-0.117188 0.34375,-0.359375 V -15.1875 c 0,-0.21875 -0.117187,-0.328125 -0.34375,-0.328125 -0.054687,0 -0.078125,-0.01953 -0.078125,-0.0625 0,-0.0625 0.023438,-0.09375 0.078125,-0.09375 h 1.53125 c 0.0625,0 0.09375,0.03125 0.09375,0.09375 0,0.04297 -0.03125,0.0625 -0.09375,0.0625 -0.21875,0 -0.328125,0.109375 -0.328125,0.328125 v 14.765625 c 0,0.242187 0.109375,0.359375 0.328125,0.359375 z m 0,0"
           id="path55" stroke="#000000" stroke-width="0.4" stroke-linejoin="round" stroke-linecap="round" />
      </g>
    </g>
  </g>
  <g
     fill="#000000"
     fill-opacity="1"
     id="g61"
     clip-path="url(#clipPath85)"
     transform="translate(-53.621639,-142.13436)">
    <g
       transform="translate(244.24672,219.17735)"
       id="g60">
      <g
         id="g59">
        <path
           d="m 1.640625,-15.421875 c -0.054687,0.05469 -0.070313,0.132813 -0.046875,0.234375 L 5.0625,-1.359375 c 0,0.011719 0,0.023437 0,0.03125 l -0.359375,1.46875 c 0,-0.03125 0,-0.03125 0,0 0,0.007813 -0.011719,0.019531 -0.03125,0.03125 -0.011719,0 -0.015625,0 -0.015625,0 -0.011719,0.019531 -0.015625,0.03125 -0.015625,0.03125 -0.023437,0 -0.039063,-0.011719 -0.046875,-0.03125 C 4.570312,0.160156 4.554688,0.148438 4.546875,0.140625 L 0.71875,-15.15625 c -0.0625,-0.238281 -0.214844,-0.359375 -0.453125,-0.359375 -0.042969,0 -0.0625,-0.01953 -0.0625,-0.0625 0,-0.0625 0.019531,-0.09375 0.0625,-0.09375 H 1.40625 c 0,0 0.00391,0 0.015625,0 0.00781,0 0.015625,0 0.015625,0 h 0.40625 c 0.039062,0 0.0625,0.03125 0.0625,0.09375 0,0.04297 -0.023438,0.0625 -0.0625,0.0625 -0.09375,0 -0.164062,0.03125 -0.203125,0.09375 z m 7.34375,-0.25 c 0.039063,0 0.0625,0.03125 0.0625,0.09375 0,0.04297 -0.023437,0.0625 -0.0625,0.0625 -0.242187,0 -0.390625,0.121094 -0.453125,0.359375 l -2.6875,10.75 c -0.011719,0.042969 -0.03125,0.0625 -0.0625,0.0625 -0.023438,0 -0.03125,0 -0.03125,0 C 5.695312,-4.351562 5.675781,-4.382812 5.6875,-4.4375 l 2.703125,-10.75 c 0.019531,-0.101562 0.00781,-0.179688 -0.03125,-0.234375 -0.054687,-0.0625 -0.121094,-0.09375 -0.203125,-0.09375 -0.0625,0 -0.09375,-0.01953 -0.09375,-0.0625 0,-0.0625 0.03125,-0.09375 0.09375,-0.09375 z m 0,0"
           id="path58" stroke="#000000" stroke-width="0.4" stroke-linejoin="round" stroke-linecap="round" />
      </g>
    </g>
  </g>
  <g
     fill="#000000"
     fill-opacity="1"
     id="g64"
     clip-path="url(#clipPath84)"
     transform="translate(-53.621639,-142.13436)">
    <g
       transform="translate(260.85723,219.17735)"
       id="g63">
      <g
         id="g62">
        <path
           d="m 6.9375,-8.21875 c 0,-0.039062 0.03125,-0.0625 0.09375,-0.0625 0.039062,0 0.0625,0.023438 0.0625,0.0625 v 0.828125 c 0,0.0625 -0.023438,0.09375 -0.0625,0.09375 -0.0625,0 -0.09375,-0.03125 -0.09375,-0.09375 0,-0.21875 -0.109375,-0.328125 -0.328125,-0.328125 H 3.71875 c -0.042969,0 -0.0625,-0.023438 -0.0625,-0.078125 0,-0.050781 0.019531,-0.078125 0.0625,-0.078125 h 2.890625 c 0.21875,0 0.328125,-0.113281 0.328125,-0.34375 z m 2.4375,-6.453125 c 0,-0.1875 -0.3125,-0.375 -0.9375,-0.5625 C 7.8125,-15.421875 7,-15.515625 6,-15.515625 H 2.375 V -0.0625 H 6 c 1,0 1.8125,-0.09375 2.4375,-0.28125 C 9.0625,-0.53125 9.375,-0.722656 9.375,-0.921875 9.375,-0.972656 9.398438,-1 9.453125,-1 9.503906,-1 9.53125,-0.972656 9.53125,-0.921875 V 0 c 0,0.0390625 -0.027344,0.0625 -0.078125,0.0625 H 2.3125 c -0.023438,0 -0.03125,0 -0.03125,0 H 1.171875 C 1.117188,0.0625 1.09375,0.0390625 1.09375,0 c 0,-0.0390625 0.023438,-0.0625 0.078125,-0.0625 0.226563,0 0.34375,-0.117188 0.34375,-0.359375 V -15.1875 c 0,-0.21875 -0.117187,-0.328125 -0.34375,-0.328125 -0.054687,0 -0.078125,-0.01953 -0.078125,-0.0625 0,-0.0625 0.023438,-0.09375 0.078125,-0.09375 H 2.28125 c 0,0 0.00391,0 0.015625,0 0.00781,0 0.015625,0 0.015625,0 h 7.140625 c 0.050781,0 0.078125,0.03125 0.078125,0.09375 v 0.90625 c 0,0.05469 -0.027344,0.07813 -0.078125,0.07813 -0.054687,0 -0.078125,-0.02344 -0.078125,-0.07813 z m 0,0"
           id="path61" stroke="#000000" stroke-width="0.4" stroke-linejoin="round" stroke-linecap="round" />
      </g>
    </g>
  </g>
</svg>
