<svg shape-rendering="geometricPrecision" xmlns="http://www.w3.org/2000/svg" xmlns:xlink="http://www.w3.org/1999/xlink" width="500" zoomAndPan="magnify" viewBox="0 0 375 374.999991" height="500" preserveAspectRatio="xMidYMid meet" version="1.0"><defs><g/></defs><g fill="#000000" fill-opacity="1"><g transform="translate(55.271965, 186.259346)"><g><path d="M 3.1875 2.40625 C 1.582031 2.40625 0.320312 1.832031 -0.59375 0.6875 C -1.519531 -0.457031 -1.835938 -1.863281 -1.546875 -3.53125 C -1.265625 -5.1875 -0.476562 -7.117188 0.8125 -9.328125 C 2.101562 -11.535156 3.738281 -13.785156 5.71875 -16.078125 C 7.695312 -18.367188 9.890625 -20.503906 12.296875 -22.484375 C 14.703125 -24.460938 17.179688 -26.050781 19.734375 -27.25 C 22.285156 -28.457031 24.796875 -29.0625 27.265625 -29.0625 C 28.984375 -29.0625 30.300781 -28.675781 31.21875 -27.90625 C 32.132812 -27.132812 32.445312 -26.085938 32.15625 -24.765625 C 31.925781 -23.222656 31.207031 -21.660156 30 -20.078125 C 28.800781 -18.503906 27.367188 -17.039062 25.703125 -15.6875 C 24.046875 -14.34375 22.382812 -13.1875 20.71875 -12.21875 C 20.664062 -12.15625 20.582031 -12.125 20.46875 -12.125 C 20.175781 -12.125 20.03125 -12.296875 20.03125 -12.640625 C 20.03125 -12.867188 20.117188 -13.015625 20.296875 -13.078125 C 23.222656 -14.734375 25.6875 -16.648438 27.6875 -18.828125 C 29.695312 -21.015625 30.875 -23.050781 31.21875 -24.9375 C 31.5625 -27 30.242188 -28.03125 27.265625 -28.03125 C 24.910156 -28.03125 22.484375 -27.441406 19.984375 -26.265625 C 17.492188 -25.097656 15.085938 -23.566406 12.765625 -21.671875 C 10.441406 -19.773438 8.332031 -17.722656 6.4375 -15.515625 C 4.550781 -13.316406 2.988281 -11.140625 1.75 -8.984375 C 0.519531 -6.835938 -0.234375 -4.960938 -0.515625 -3.359375 C -0.742188 -1.984375 -0.5 -0.835938 0.21875 0.078125 C 0.9375 1.003906 1.925781 1.46875 3.1875 1.46875 C 5.59375 1.46875 8.113281 1.164062 10.75 0.5625 C 13.382812 -0.0390625 15.9375 -0.816406 18.40625 -1.765625 C 20.875 -2.710938 23.140625 -3.703125 25.203125 -4.734375 C 27.265625 -5.765625 28.925781 -6.679688 30.1875 -7.484375 L 30.4375 -7.484375 C 30.78125 -7.484375 30.953125 -7.335938 30.953125 -7.046875 C 30.953125 -6.878906 30.867188 -6.738281 30.703125 -6.625 C 29.441406 -5.820312 27.765625 -4.90625 25.671875 -3.875 C 23.578125 -2.84375 21.269531 -1.851562 18.75 -0.90625 C 16.226562 0.0390625 13.632812 0.828125 10.96875 1.453125 C 8.300781 2.085938 5.707031 2.40625 3.1875 2.40625 Z M 3.1875 2.40625 "/></g></g></g><g fill="#000000" fill-opacity="1"><g transform="translate(83.735364, 186.259346)"><g><path d="M 11.609375 0.09375 C 9.546875 0.09375 8.515625 -0.769531 8.515625 -2.5 C 8.515625 -3.351562 8.742188 -4.238281 9.203125 -5.15625 C 9.660156 -6.070312 10.144531 -6.90625 10.65625 -7.65625 C 10.78125 -7.769531 10.8125 -7.851562 10.75 -7.90625 C 10.6875 -7.96875 10.597656 -7.941406 10.484375 -7.828125 C 10.085938 -7.597656 9.515625 -7.195312 8.765625 -6.625 C 7.566406 -5.757812 6.234375 -4.828125 4.765625 -3.828125 C 3.304688 -2.828125 1.914062 -1.953125 0.59375 -1.203125 C -0.71875 -0.460938 -1.773438 -0.09375 -2.578125 -0.09375 C -3.609375 -0.09375 -4.125 -0.550781 -4.125 -1.46875 C -4.125 -2.207031 -3.722656 -3.019531 -2.921875 -3.90625 C -2.117188 -4.800781 -1.117188 -5.648438 0.078125 -6.453125 C 1.285156 -7.253906 2.476562 -7.910156 3.65625 -8.421875 C 4.832031 -8.941406 5.789062 -9.203125 6.53125 -9.203125 C 7.675781 -9.203125 8.476562 -8.769531 8.9375 -7.90625 C 10.78125 -9.28125 11.875 -9.96875 12.21875 -9.96875 C 12.613281 -9.96875 12.8125 -9.769531 12.8125 -9.375 C 12.8125 -9.144531 12.5 -8.570312 11.875 -7.65625 C 11.351562 -6.90625 10.816406 -6.054688 10.265625 -5.109375 C 9.722656 -4.171875 9.453125 -3.300781 9.453125 -2.5 C 9.453125 -1.46875 10.171875 -0.953125 11.609375 -0.953125 C 12.523438 -0.953125 13.867188 -1.238281 15.640625 -1.8125 C 17.421875 -2.382812 19.316406 -3.15625 21.328125 -4.125 C 23.335938 -5.101562 25.144531 -6.191406 26.75 -7.390625 C 26.800781 -7.453125 26.914062 -7.484375 27.09375 -7.484375 C 27.375 -7.484375 27.515625 -7.335938 27.515625 -7.046875 C 27.515625 -6.878906 27.457031 -6.738281 27.34375 -6.625 C 25.738281 -5.476562 23.90625 -4.390625 21.84375 -3.359375 C 19.78125 -2.328125 17.816406 -1.492188 15.953125 -0.859375 C 14.085938 -0.222656 12.640625 0.09375 11.609375 0.09375 Z M -2.578125 -1.125 C -1.890625 -1.125 -0.929688 -1.46875 0.296875 -2.15625 C 1.535156 -2.84375 2.851562 -3.671875 4.25 -4.640625 C 5.65625 -5.617188 6.929688 -6.535156 8.078125 -7.390625 C 7.796875 -7.960938 7.28125 -8.25 6.53125 -8.25 C 5.789062 -8.25 4.875 -8.003906 3.78125 -7.515625 C 2.695312 -7.035156 1.625 -6.40625 0.5625 -5.625 C -0.5 -4.851562 -1.390625 -4.09375 -2.109375 -3.34375 C -2.828125 -2.601562 -3.1875 -1.976562 -3.1875 -1.46875 C -3.1875 -1.238281 -2.984375 -1.125 -2.578125 -1.125 Z M -2.578125 -1.125 "/></g></g></g><g fill="#000000" fill-opacity="1"><g transform="translate(108.845073, 186.259346)"><g><path d="M 1.125 9.28125 C -0.425781 9.28125 -1.203125 8.535156 -1.203125 7.046875 C -1.203125 6.078125 -0.757812 4.945312 0.125 3.65625 C 1.019531 2.363281 2.15625 1.015625 3.53125 -0.390625 C 4.90625 -1.796875 6.28125 -3.210938 7.65625 -4.640625 C 9.488281 -6.472656 11.117188 -8.164062 12.546875 -9.71875 C 13.984375 -11.269531 14.703125 -12.445312 14.703125 -13.25 C 14.703125 -13.757812 13.929688 -14.5625 12.390625 -15.65625 C 10.773438 -13.988281 9.066406 -12.351562 7.265625 -10.75 C 5.460938 -9.144531 3.785156 -7.769531 2.234375 -6.625 C 2.179688 -6.5625 2.066406 -6.53125 1.890625 -6.53125 C 1.609375 -6.53125 1.46875 -6.703125 1.46875 -7.046875 C 1.46875 -7.160156 1.523438 -7.273438 1.640625 -7.390625 C 3.359375 -8.648438 5.078125 -10.054688 6.796875 -11.609375 C 8.515625 -13.160156 10.09375 -14.679688 11.53125 -16.171875 C 10.78125 -16.679688 10.1875 -17.109375 9.75 -17.453125 C 9.320312 -17.796875 9.109375 -18.171875 9.109375 -18.578125 C 9.109375 -19.085938 9.425781 -19.726562 10.0625 -20.5 C 10.695312 -21.28125 11.484375 -22.03125 12.421875 -22.75 C 13.367188 -23.46875 14.328125 -24.066406 15.296875 -24.546875 C 16.273438 -25.035156 17.109375 -25.28125 17.796875 -25.28125 C 18.429688 -25.28125 18.75 -24.9375 18.75 -24.25 C 18.75 -23.675781 18.21875 -22.65625 17.15625 -21.1875 C 16.09375 -19.726562 14.734375 -18.113281 13.078125 -16.34375 C 13.816406 -15.65625 14.441406 -15.09375 14.953125 -14.65625 C 15.472656 -14.226562 15.734375 -13.757812 15.734375 -13.25 C 15.734375 -12.21875 14.957031 -10.851562 13.40625 -9.15625 C 11.863281 -7.46875 10.175781 -5.707031 8.34375 -3.875 C 6.96875 -2.5 5.617188 -1.140625 4.296875 0.203125 C 2.984375 1.554688 1.894531 2.820312 1.03125 4 C 0.164062 5.175781 -0.265625 6.191406 -0.265625 7.046875 C -0.265625 7.847656 0.195312 8.25 1.125 8.25 C 2.320312 8.25 4.050781 7.734375 6.3125 6.703125 C 8.582031 5.671875 11.078125 4.351562 13.796875 2.75 C 16.523438 1.144531 19.25 -0.554688 21.96875 -2.359375 C 24.695312 -4.171875 27.117188 -5.847656 29.234375 -7.390625 C 29.296875 -7.453125 29.382812 -7.484375 29.5 -7.484375 C 29.84375 -7.484375 30.015625 -7.335938 30.015625 -7.046875 C 30.015625 -6.878906 29.957031 -6.738281 29.84375 -6.625 C 27.71875 -5.070312 25.28125 -3.378906 22.53125 -1.546875 C 19.78125 0.285156 17 2.019531 14.1875 3.65625 C 11.375 5.289062 8.820312 6.632812 6.53125 7.6875 C 4.238281 8.75 2.4375 9.28125 1.125 9.28125 Z M 12.21875 -16.859375 C 12.84375 -17.484375 13.539062 -18.253906 14.3125 -19.171875 C 15.09375 -20.085938 15.8125 -20.976562 16.46875 -21.84375 C 17.125 -22.707031 17.539062 -23.367188 17.71875 -23.828125 C 17.832031 -24.171875 17.71875 -24.285156 17.375 -24.171875 C 16.625 -24.054688 15.675781 -23.625 14.53125 -22.875 C 13.382812 -22.132812 12.363281 -21.359375 11.46875 -20.546875 C 10.582031 -19.742188 10.140625 -19.085938 10.140625 -18.578125 C 10.140625 -18.515625 10.296875 -18.335938 10.609375 -18.046875 C 10.929688 -17.765625 11.46875 -17.367188 12.21875 -16.859375 Z M 12.21875 -16.859375 "/></g></g></g><g fill="#000000" fill-opacity="1"><g transform="translate(136.448553, 186.259346)"><g><path d="M -2.40625 0.515625 C -2.925781 0.398438 -3.1875 0.113281 -3.1875 -0.34375 C -3.1875 -0.75 -2.796875 -1.535156 -2.015625 -2.703125 C -1.242188 -3.878906 -0.285156 -5.140625 0.859375 -6.484375 C 2.003906 -7.835938 3.066406 -8.972656 4.046875 -9.890625 C 4.097656 -9.941406 4.210938 -9.96875 4.390625 -9.96875 C 4.734375 -9.96875 4.90625 -9.796875 4.90625 -9.453125 C 4.90625 -9.335938 4.847656 -9.222656 4.734375 -9.109375 C 3.359375 -7.847656 2.09375 -6.5 0.9375 -5.0625 C -0.207031 -3.632812 -1.035156 -2.460938 -1.546875 -1.546875 C -1.660156 -1.378906 -1.660156 -1.265625 -1.546875 -1.203125 C -1.429688 -1.148438 -1.316406 -1.148438 -1.203125 -1.203125 C -0.742188 -1.492188 -0.203125 -1.894531 0.421875 -2.40625 C 1.054688 -2.925781 1.832031 -3.554688 2.75 -4.296875 C 5.957031 -6.929688 8.347656 -8.78125 9.921875 -9.84375 C 11.503906 -10.90625 12.695312 -11.4375 13.5 -11.4375 C 14.707031 -11.4375 15.3125 -11.003906 15.3125 -10.140625 C 15.3125 -9.398438 14.394531 -7.625 12.5625 -4.8125 L 11.265625 -2.75 C 11.148438 -2.582031 11.132812 -2.453125 11.21875 -2.359375 C 11.3125 -2.273438 11.441406 -2.265625 11.609375 -2.328125 L 13.5 -3.53125 C 14.476562 -4.101562 15.492188 -4.660156 16.546875 -5.203125 C 17.609375 -5.742188 18.425781 -6.015625 19 -6.015625 C 19.75 -6.015625 20.125 -5.613281 20.125 -4.8125 C 20.125 -4.582031 20.109375 -4.351562 20.078125 -4.125 C 20.046875 -3.894531 20.03125 -3.664062 20.03125 -3.4375 C 19.976562 -3.207031 19.9375 -2.945312 19.90625 -2.65625 C 19.875 -2.375 19.859375 -2.09375 19.859375 -1.8125 C 19.859375 -1.351562 20.257812 -1.125 21.0625 -1.125 C 22.15625 -1.125 23.644531 -1.609375 25.53125 -2.578125 C 27.425781 -3.554688 30.007812 -5.160156 33.28125 -7.390625 C 33.34375 -7.453125 33.429688 -7.484375 33.546875 -7.484375 C 33.890625 -7.484375 34.0625 -7.335938 34.0625 -7.046875 C 34.0625 -6.878906 33.972656 -6.738281 33.796875 -6.625 C 30.472656 -4.332031 27.820312 -2.679688 25.84375 -1.671875 C 23.863281 -0.671875 22.269531 -0.171875 21.0625 -0.171875 C 19.632812 -0.171875 18.921875 -0.71875 18.921875 -1.8125 C 18.921875 -2.09375 18.921875 -2.390625 18.921875 -2.703125 C 18.921875 -3.023438 18.945312 -3.300781 19 -3.53125 C 19.0625 -3.8125 19.101562 -4.050781 19.125 -4.25 C 19.15625 -4.457031 19.171875 -4.644531 19.171875 -4.8125 C 19.171875 -4.988281 19.054688 -5.078125 18.828125 -5.078125 C 18.546875 -5.078125 18.046875 -4.90625 17.328125 -4.5625 C 16.609375 -4.21875 15.503906 -3.585938 14.015625 -2.671875 C 12.867188 -1.921875 12.035156 -1.414062 11.515625 -1.15625 C 11.003906 -0.90625 10.601562 -0.78125 10.3125 -0.78125 C 9.914062 -0.78125 9.71875 -1.035156 9.71875 -1.546875 C 9.71875 -1.835938 9.859375 -2.253906 10.140625 -2.796875 C 10.429688 -3.335938 10.976562 -4.179688 11.78125 -5.328125 C 12.695312 -6.765625 13.34375 -7.835938 13.71875 -8.546875 C 14.09375 -9.265625 14.28125 -9.769531 14.28125 -10.0625 C 14.28125 -10.34375 14.109375 -10.484375 13.765625 -10.484375 C 13.078125 -10.484375 12.15625 -10.125 11 -9.40625 C 9.851562 -8.695312 8.617188 -7.8125 7.296875 -6.75 C 5.984375 -5.6875 4.671875 -4.640625 3.359375 -3.609375 C 1.410156 -2.003906 0.0507812 -0.914062 -0.71875 -0.34375 C -1.5 0.226562 -2.0625 0.515625 -2.40625 0.515625 Z M -2.40625 0.515625 "/></g></g></g><g fill="#000000" fill-opacity="1"><g transform="translate(168.093662, 186.259346)"><g><path d="M 2.84375 0.265625 C 1.582031 0.265625 0.59375 0.0351562 -0.125 -0.421875 C -0.84375 -0.890625 -1.203125 -1.550781 -1.203125 -2.40625 C -1.203125 -3.382812 -0.800781 -4.414062 0 -5.5 C 0.800781 -6.59375 1.757812 -7.539062 2.875 -8.34375 C 4 -9.144531 5.019531 -9.546875 5.9375 -9.546875 C 6.96875 -9.546875 7.484375 -9.085938 7.484375 -8.171875 C 7.484375 -7.597656 7.09375 -7.050781 6.3125 -6.53125 C 5.539062 -6.019531 4.753906 -5.765625 3.953125 -5.765625 C 2.984375 -5.765625 2.269531 -5.878906 1.8125 -6.109375 C 1.238281 -5.535156 0.765625 -4.914062 0.390625 -4.25 C 0.015625 -3.59375 -0.171875 -2.976562 -0.171875 -2.40625 C -0.171875 -1.320312 0.832031 -0.78125 2.84375 -0.78125 C 3.695312 -0.78125 5.039062 -1.035156 6.875 -1.546875 C 8.707031 -2.066406 10.753906 -2.8125 13.015625 -3.78125 C 15.285156 -4.757812 17.394531 -5.960938 19.34375 -7.390625 C 19.40625 -7.453125 19.492188 -7.484375 19.609375 -7.484375 C 19.953125 -7.484375 20.125 -7.335938 20.125 -7.046875 C 20.125 -6.878906 20.035156 -6.738281 19.859375 -6.625 C 17.859375 -5.132812 15.707031 -3.875 13.40625 -2.84375 C 11.113281 -1.8125 9.007812 -1.035156 7.09375 -0.515625 C 5.175781 0.00390625 3.757812 0.265625 2.84375 0.265625 Z M 3.953125 -6.703125 C 4.410156 -6.703125 4.953125 -6.890625 5.578125 -7.265625 C 6.210938 -7.640625 6.53125 -7.941406 6.53125 -8.171875 C 6.53125 -8.398438 6.332031 -8.515625 5.9375 -8.515625 C 5.414062 -8.515625 4.867188 -8.351562 4.296875 -8.03125 C 3.722656 -7.71875 3.148438 -7.332031 2.578125 -6.875 C 2.753906 -6.820312 2.957031 -6.78125 3.1875 -6.75 C 3.414062 -6.71875 3.671875 -6.703125 3.953125 -6.703125 Z M 3.953125 -6.703125 "/></g></g></g><g fill="#000000" fill-opacity="1"><g transform="translate(185.722048, 186.259346)"><g><path d="M 0.515625 3.78125 C -1.378906 3.78125 -2.328125 2.953125 -2.328125 1.296875 C -2.328125 -0.140625 -1.679688 -2.03125 -0.390625 -4.375 C 0.898438 -6.726562 2.617188 -9.3125 4.765625 -12.125 C 6.921875 -14.9375 9.34375 -17.832031 12.03125 -20.8125 C 14.726562 -23.789062 17.492188 -26.671875 20.328125 -29.453125 C 23.171875 -32.234375 25.882812 -34.726562 28.46875 -36.9375 C 31.050781 -39.144531 33.359375 -40.894531 35.390625 -42.1875 C 37.421875 -43.476562 38.953125 -44.125 39.984375 -44.125 C 41.242188 -44.125 41.875 -43.546875 41.875 -42.390625 C 41.875 -41.585938 41.226562 -40.34375 39.9375 -38.65625 C 38.65625 -36.96875 36.921875 -35.003906 34.734375 -32.765625 C 32.554688 -30.523438 30.078125 -28.171875 27.296875 -25.703125 C 24.523438 -23.242188 21.632812 -20.796875 18.625 -18.359375 C 15.613281 -15.921875 12.660156 -13.65625 9.765625 -11.5625 C 6.867188 -9.46875 4.1875 -7.675781 1.71875 -6.1875 C -0.34375 -2.976562 -1.375 -0.484375 -1.375 1.296875 C -1.375 1.867188 -1.242188 2.269531 -0.984375 2.5 C -0.734375 2.726562 -0.234375 2.84375 0.515625 2.84375 C 1.429688 2.84375 2.9375 2.382812 5.03125 1.46875 C 7.125 0.550781 9.515625 -0.679688 12.203125 -2.234375 C 14.898438 -3.785156 17.597656 -5.503906 20.296875 -7.390625 C 20.347656 -7.453125 20.460938 -7.484375 20.640625 -7.484375 C 20.921875 -7.484375 21.0625 -7.3125 21.0625 -6.96875 C 21.0625 -6.851562 21.003906 -6.738281 20.890625 -6.625 C 18.484375 -4.957031 15.90625 -3.320312 13.15625 -1.71875 C 10.40625 -0.113281 7.894531 1.203125 5.625 2.234375 C 3.363281 3.265625 1.660156 3.78125 0.515625 3.78125 Z M 3.015625 -8.078125 C 6.046875 -10.035156 9.296875 -12.332031 12.765625 -14.96875 C 16.234375 -17.601562 19.628906 -20.335938 22.953125 -23.171875 C 26.285156 -26.015625 29.296875 -28.738281 31.984375 -31.34375 C 34.679688 -33.957031 36.847656 -36.25 38.484375 -38.21875 C 40.117188 -40.195312 40.9375 -41.585938 40.9375 -42.390625 C 40.9375 -42.910156 40.617188 -43.171875 39.984375 -43.171875 C 38.898438 -43.171875 37.253906 -42.410156 35.046875 -40.890625 C 32.835938 -39.367188 30.300781 -37.347656 27.4375 -34.828125 C 24.570312 -32.304688 21.617188 -29.507812 18.578125 -26.4375 C 15.535156 -23.375 12.648438 -20.25 9.921875 -17.0625 C 7.203125 -13.882812 4.898438 -10.890625 3.015625 -8.078125 Z M 3.015625 -8.078125 "/></g></g></g><g fill="#000000" fill-opacity="1"><g transform="translate(204.468339, 186.259346)"><g/></g></g><g fill="#000000" fill-opacity="1"><g transform="translate(223.472603, 186.259346)"><g><path d="M 39.296875 -7.484375 C 39.640625 -7.484375 39.8125 -7.335938 39.8125 -7.046875 C 39.8125 -6.878906 39.753906 -6.738281 39.640625 -6.625 C 38.898438 -5.9375 37.796875 -5.078125 36.328125 -4.046875 C 34.867188 -3.015625 33.25 -1.976562 31.46875 -0.9375 C 29.695312 0.09375 27.90625 0.960938 26.09375 1.671875 C 24.289062 2.390625 22.644531 2.75 21.15625 2.75 C 19.488281 2.75 18.082031 1.972656 16.9375 0.421875 C 15.789062 -1.117188 14.757812 -2.691406 13.84375 -4.296875 C 13.613281 -4.753906 13.382812 -5.179688 13.15625 -5.578125 C 12.925781 -5.984375 12.671875 -6.390625 12.390625 -6.796875 C 11.753906 -6.796875 11.09375 -6.9375 10.40625 -7.21875 C 8.625 -4.925781 7.0625 -2.773438 5.71875 -0.765625 C 4.375 1.234375 3.472656 2.863281 3.015625 4.125 C 3.179688 4.125 3.265625 4.296875 3.265625 4.640625 C 3.210938 5.046875 3.113281 5.421875 2.96875 5.765625 C 2.820312 6.109375 2.632812 6.304688 2.40625 6.359375 C 2.125 6.472656 1.894531 6.390625 1.71875 6.109375 L 1.640625 5.765625 C 1.640625 5.648438 1.648438 5.535156 1.671875 5.421875 C 1.703125 5.304688 1.75 5.132812 1.8125 4.90625 C 1.976562 3.757812 2.773438 2.039062 4.203125 -0.25 C 5.640625 -2.550781 7.390625 -4.988281 9.453125 -7.5625 C 8.421875 -8.132812 7.90625 -8.738281 7.90625 -9.375 C 7.90625 -10.113281 8.304688 -10.484375 9.109375 -10.484375 C 9.910156 -10.484375 10.601562 -10.226562 11.1875 -9.71875 C 13.019531 -11.957031 14.921875 -14.117188 16.890625 -16.203125 C 18.867188 -18.296875 20.75 -20.09375 22.53125 -21.59375 C 22.644531 -21.707031 22.734375 -21.765625 22.796875 -21.765625 C 23.140625 -21.765625 23.3125 -21.585938 23.3125 -21.234375 C 23.3125 -21.117188 23.253906 -21.003906 23.140625 -20.890625 C 21.359375 -19.398438 19.492188 -17.609375 17.546875 -15.515625 C 15.597656 -13.429688 13.707031 -11.269531 11.875 -9.03125 C 12.21875 -8.6875 12.5625 -8.253906 12.90625 -7.734375 L 13.25 -7.734375 C 16.394531 -7.734375 19.375 -8.21875 22.1875 -9.1875 C 25 -10.164062 27.460938 -11.457031 29.578125 -13.0625 C 31.703125 -14.675781 33.378906 -16.425781 34.609375 -18.3125 C 35.847656 -20.207031 36.46875 -22.046875 36.46875 -23.828125 C 36.46875 -26.859375 34.375 -28.375 30.1875 -28.375 C 27.257812 -28.375 24.160156 -27.785156 20.890625 -26.609375 C 17.628906 -25.441406 14.5625 -23.878906 11.6875 -21.921875 C 8.820312 -19.972656 6.5625 -17.828125 4.90625 -15.484375 C 4.84375 -15.304688 4.695312 -15.21875 4.46875 -15.21875 C 4.1875 -15.21875 4.046875 -15.390625 4.046875 -15.734375 C 4.046875 -15.847656 4.070312 -15.9375 4.125 -16 C 5.84375 -18.457031 8.164062 -20.691406 11.09375 -22.703125 C 14.019531 -24.710938 17.1875 -26.332031 20.59375 -27.5625 C 24.007812 -28.789062 27.207031 -29.40625 30.1875 -29.40625 C 35 -29.40625 37.40625 -27.546875 37.40625 -23.828125 C 37.40625 -21.929688 36.773438 -19.976562 35.515625 -17.96875 C 34.253906 -15.96875 32.519531 -14.117188 30.3125 -12.421875 C 28.101562 -10.734375 25.566406 -9.375 22.703125 -8.34375 C 19.835938 -7.3125 16.800781 -6.765625 13.59375 -6.703125 L 14.703125 -4.8125 C 15.617188 -3.207031 16.578125 -1.71875 17.578125 -0.34375 C 18.585938 1.03125 19.78125 1.71875 21.15625 1.71875 C 22.53125 1.71875 24.09375 1.375 25.84375 0.6875 C 27.59375 0 29.328125 -0.84375 31.046875 -1.84375 C 32.765625 -2.851562 34.335938 -3.859375 35.765625 -4.859375 C 37.203125 -5.859375 38.296875 -6.703125 39.046875 -7.390625 C 39.097656 -7.453125 39.179688 -7.484375 39.296875 -7.484375 Z M 10.0625 -8.421875 C 10.289062 -8.648438 10.460938 -8.851562 10.578125 -9.03125 C 10.347656 -9.144531 10.117188 -9.257812 9.890625 -9.375 C 9.660156 -9.488281 9.398438 -9.546875 9.109375 -9.546875 C 8.941406 -9.546875 8.859375 -9.488281 8.859375 -9.375 C 8.859375 -9.03125 9.257812 -8.710938 10.0625 -8.421875 Z M 11.015625 -8.078125 C 11.359375 -7.960938 11.554688 -7.90625 11.609375 -7.90625 C 11.554688 -8.019531 11.5 -8.101562 11.4375 -8.15625 C 11.382812 -8.21875 11.328125 -8.28125 11.265625 -8.34375 Z M 11.015625 -8.078125 "/></g></g></g><g fill="#000000" fill-opacity="1"><g transform="translate(260.879205, 186.259346)"><g><path d="M -0.515625 0.6875 C -1.609375 0.6875 -2.15625 0.0234375 -2.15625 -1.296875 C -2.15625 -2.492188 -1.648438 -3.738281 -0.640625 -5.03125 C 0.359375 -6.320312 1.601562 -7.425781 3.09375 -8.34375 C 3.09375 -8.394531 3.109375 -8.421875 3.140625 -8.421875 C 3.171875 -8.421875 3.1875 -8.453125 3.1875 -8.515625 C 3.414062 -8.972656 3.703125 -9.144531 4.046875 -9.03125 C 4.160156 -8.96875 4.273438 -8.96875 4.390625 -9.03125 C 4.785156 -9.257812 5.1875 -9.398438 5.59375 -9.453125 C 5.59375 -9.515625 5.648438 -9.546875 5.765625 -9.546875 C 6.046875 -9.546875 6.1875 -9.375 6.1875 -9.03125 C 6.1875 -8.738281 6.070312 -8.59375 5.84375 -8.59375 C 5.789062 -8.539062 5.734375 -8.515625 5.671875 -8.515625 C 5.617188 -8.515625 5.5625 -8.484375 5.5 -8.421875 C 5.332031 -8.367188 5.332031 -8.285156 5.5 -8.171875 C 7.851562 -6.796875 10.390625 -6.035156 13.109375 -5.890625 C 15.835938 -5.742188 18.234375 -6.273438 20.296875 -7.484375 L 20.546875 -7.484375 C 20.890625 -7.484375 21.0625 -7.335938 21.0625 -7.046875 C 21.0625 -6.878906 20.945312 -6.738281 20.71875 -6.625 C 18.488281 -5.363281 15.878906 -4.800781 12.890625 -4.9375 C 9.910156 -5.082031 7.160156 -5.929688 4.640625 -7.484375 C 4.472656 -7.648438 4.390625 -7.59375 4.390625 -7.3125 C 4.554688 -6.21875 4.410156 -5.039062 3.953125 -3.78125 C 3.492188 -2.519531 2.863281 -1.457031 2.0625 -0.59375 C 1.257812 0.257812 0.398438 0.6875 -0.515625 0.6875 Z M -0.515625 -0.265625 C 0.171875 -0.265625 0.84375 -0.664062 1.5 -1.46875 C 2.164062 -2.269531 2.695312 -3.226562 3.09375 -4.34375 C 3.5 -5.457031 3.613281 -6.472656 3.4375 -7.390625 C 2.125 -6.585938 1.019531 -5.613281 0.125 -4.46875 C -0.757812 -3.320312 -1.203125 -2.265625 -1.203125 -1.296875 C -1.203125 -0.609375 -0.972656 -0.265625 -0.515625 -0.265625 Z M -0.515625 -0.265625 "/></g></g></g><g fill="#000000" fill-opacity="1"><g transform="translate(279.453514, 186.259346)"><g><path d="M -0.34375 4.125 C -1.320312 4.125 -1.8125 3.753906 -1.8125 3.015625 C -1.8125 2.441406 -1.289062 1.820312 -0.25 1.15625 C 0.78125 0.5 2.007812 -0.140625 3.4375 -0.765625 C 4.875 -1.398438 6.164062 -1.921875 7.3125 -2.328125 C 7.425781 -2.328125 7.484375 -2.351562 7.484375 -2.40625 C 7.597656 -2.632812 7.722656 -2.847656 7.859375 -3.046875 C 8.003906 -3.253906 8.019531 -3.414062 7.90625 -3.53125 C 7.851562 -3.644531 7.4375 -3.65625 6.65625 -3.5625 C 5.882812 -3.476562 5.328125 -3.410156 4.984375 -3.359375 C 4.472656 -3.296875 3.972656 -3.222656 3.484375 -3.140625 C 2.992188 -3.054688 2.519531 -3.015625 2.0625 -3.015625 C 0.6875 -3.015625 0 -3.472656 0 -4.390625 C 0 -5.242188 0.457031 -6.15625 1.375 -7.125 C 2.289062 -8.101562 3.378906 -8.953125 4.640625 -9.671875 C 5.898438 -10.390625 7.046875 -10.75 8.078125 -10.75 C 9.109375 -10.75 9.625 -10.316406 9.625 -9.453125 C 9.625 -9.285156 9.597656 -9.171875 9.546875 -9.109375 C 9.253906 -7.960938 8.648438 -7.132812 7.734375 -6.625 C 7.679688 -6.5625 7.597656 -6.53125 7.484375 -6.53125 C 7.140625 -6.53125 6.96875 -6.703125 6.96875 -7.046875 C 6.96875 -7.273438 7.050781 -7.421875 7.21875 -7.484375 C 7.507812 -7.648438 7.8125 -7.929688 8.125 -8.328125 C 8.4375 -8.734375 8.59375 -9.082031 8.59375 -9.375 C 8.59375 -9.65625 8.421875 -9.796875 8.078125 -9.796875 C 7.222656 -9.796875 6.25 -9.476562 5.15625 -8.84375 C 4.070312 -8.21875 3.113281 -7.488281 2.28125 -6.65625 C 1.445312 -5.832031 1.03125 -5.078125 1.03125 -4.390625 C 1.03125 -4.097656 1.375 -3.953125 2.0625 -3.953125 C 2.46875 -3.953125 2.910156 -3.992188 3.390625 -4.078125 C 3.878906 -4.171875 4.351562 -4.242188 4.8125 -4.296875 C 5.269531 -4.410156 5.710938 -4.492188 6.140625 -4.546875 C 6.578125 -4.609375 6.96875 -4.640625 7.3125 -4.640625 C 8.394531 -4.640625 8.9375 -4.238281 8.9375 -3.4375 C 8.882812 -3.382812 8.859375 -3.328125 8.859375 -3.265625 C 8.859375 -3.210938 8.828125 -3.128906 8.765625 -3.015625 C 8.765625 -2.785156 8.820312 -2.726562 8.9375 -2.84375 C 9.96875 -3.125 11.070312 -3.453125 12.25 -3.828125 C 13.425781 -4.203125 14.617188 -4.5625 15.828125 -4.90625 C 17.316406 -5.363281 18.804688 -5.804688 20.296875 -6.234375 C 21.785156 -6.660156 23.160156 -7.078125 24.421875 -7.484375 L 24.59375 -7.484375 C 24.882812 -7.484375 25.03125 -7.335938 25.03125 -7.046875 C 25.03125 -6.765625 24.914062 -6.59375 24.6875 -6.53125 C 23.425781 -6.132812 22.046875 -5.71875 20.546875 -5.28125 C 19.054688 -4.851562 17.566406 -4.410156 16.078125 -3.953125 C 14.648438 -3.554688 13.257812 -3.140625 11.90625 -2.703125 C 10.5625 -2.273438 9.316406 -1.890625 8.171875 -1.546875 L 7.90625 -1.375 C 7.050781 -0.113281 5.820312 1.113281 4.21875 2.3125 C 2.613281 3.519531 1.09375 4.125 -0.34375 4.125 Z M -0.34375 3.09375 C 0.632812 3.09375 1.707031 2.734375 2.875 2.015625 C 4.050781 1.304688 5.070312 0.488281 5.9375 -0.4375 C 6.101562 -0.601562 6.046875 -0.6875 5.765625 -0.6875 C 3.984375 0.0625 2.429688 0.789062 1.109375 1.5 C -0.203125 2.21875 -0.859375 2.691406 -0.859375 2.921875 C -0.859375 3.035156 -0.6875 3.09375 -0.34375 3.09375 Z M -0.34375 3.09375 "/></g></g></g><g fill="#000000" fill-opacity="1"><g transform="translate(302.069442, 186.259346)"><g><path d="M 2.84375 0.265625 C 1.582031 0.265625 0.59375 0.0351562 -0.125 -0.421875 C -0.84375 -0.890625 -1.203125 -1.550781 -1.203125 -2.40625 C -1.203125 -3.382812 -0.800781 -4.414062 0 -5.5 C 0.800781 -6.59375 1.757812 -7.539062 2.875 -8.34375 C 4 -9.144531 5.019531 -9.546875 5.9375 -9.546875 C 6.96875 -9.546875 7.484375 -9.085938 7.484375 -8.171875 C 7.484375 -7.597656 7.09375 -7.050781 6.3125 -6.53125 C 5.539062 -6.019531 4.753906 -5.765625 3.953125 -5.765625 C 2.984375 -5.765625 2.269531 -5.878906 1.8125 -6.109375 C 1.238281 -5.535156 0.765625 -4.914062 0.390625 -4.25 C 0.015625 -3.59375 -0.171875 -2.976562 -0.171875 -2.40625 C -0.171875 -1.320312 0.832031 -0.78125 2.84375 -0.78125 C 3.695312 -0.78125 5.039062 -1.035156 6.875 -1.546875 C 8.707031 -2.066406 10.753906 -2.8125 13.015625 -3.78125 C 15.285156 -4.757812 17.394531 -5.960938 19.34375 -7.390625 C 19.40625 -7.453125 19.492188 -7.484375 19.609375 -7.484375 C 19.953125 -7.484375 20.125 -7.335938 20.125 -7.046875 C 20.125 -6.878906 20.035156 -6.738281 19.859375 -6.625 C 17.859375 -5.132812 15.707031 -3.875 13.40625 -2.84375 C 11.113281 -1.8125 9.007812 -1.035156 7.09375 -0.515625 C 5.175781 0.00390625 3.757812 0.265625 2.84375 0.265625 Z M 3.953125 -6.703125 C 4.410156 -6.703125 4.953125 -6.890625 5.578125 -7.265625 C 6.210938 -7.640625 6.53125 -7.941406 6.53125 -8.171875 C 6.53125 -8.398438 6.332031 -8.515625 5.9375 -8.515625 C 5.414062 -8.515625 4.867188 -8.351562 4.296875 -8.03125 C 3.722656 -7.71875 3.148438 -7.332031 2.578125 -6.875 C 2.753906 -6.820312 2.957031 -6.78125 3.1875 -6.75 C 3.414062 -6.71875 3.671875 -6.703125 3.953125 -6.703125 Z M 3.953125 -6.703125 "/></g></g></g><g fill="#000000" fill-opacity="1"><g transform="translate(104.244908, 219.177348)"><g><path d="M 8.671875 -15.25 C 8.648438 -15.257812 8.640625 -15.265625 8.640625 -15.265625 C 8.597656 -15.296875 8.59375 -15.328125 8.625 -15.359375 C 8.65625 -15.398438 8.679688 -15.40625 8.703125 -15.375 C 8.703125 -15.375 8.710938 -15.375 8.734375 -15.375 C 9.929688 -14.875 10.914062 -13.941406 11.6875 -12.578125 C 11.695312 -12.546875 11.691406 -12.519531 11.671875 -12.5 L 11.265625 -12.109375 C 11.242188 -12.097656 11.226562 -12.09375 11.21875 -12.09375 C 11.21875 -12.09375 11.207031 -12.09375 11.1875 -12.09375 C 11.164062 -12.09375 11.15625 -12.109375 11.15625 -12.140625 C 11.0625 -12.453125 10.929688 -12.796875 10.765625 -13.171875 C 10.609375 -13.554688 10.359375 -13.929688 10.015625 -14.296875 C 9.679688 -14.660156 9.234375 -14.976562 8.671875 -15.25 Z M 11.265625 -3.5 L 11.671875 -3.09375 C 11.691406 -3.0625 11.695312 -3.03125 11.6875 -3 C 10.925781 -1.664062 9.957031 -0.738281 8.78125 -0.21875 C 8.78125 -0.21875 8.769531 -0.21875 8.75 -0.21875 C 8.75 -0.207031 8.742188 -0.203125 8.734375 -0.203125 L 8.703125 -0.203125 C 8.703125 -0.203125 8.695312 -0.191406 8.6875 -0.171875 C 8.09375 0.078125 7.476562 0.203125 6.84375 0.203125 L 6.6875 0.171875 C 5.875 0.160156 5.113281 -0.0546875 4.40625 -0.484375 C 3.695312 -0.910156 3.070312 -1.484375 2.53125 -2.203125 C 1.988281 -2.929688 1.566406 -3.769531 1.265625 -4.71875 C 0.972656 -5.675781 0.828125 -6.703125 0.828125 -7.796875 C 0.828125 -8.878906 0.972656 -9.898438 1.265625 -10.859375 C 1.566406 -11.816406 1.988281 -12.65625 2.53125 -13.375 C 3.070312 -14.101562 3.695312 -14.675781 4.40625 -15.09375 C 5.113281 -15.519531 5.875 -15.75 6.6875 -15.78125 L 6.84375 -15.78125 C 6.90625 -15.78125 6.9375 -15.753906 6.9375 -15.703125 C 6.9375 -15.648438 6.90625 -15.625 6.84375 -15.625 L 6.71875 -15.625 C 5.789062 -15.582031 4.960938 -15.210938 4.234375 -14.515625 C 3.515625 -13.828125 2.941406 -12.894531 2.515625 -11.71875 C 2.085938 -10.550781 1.875 -9.242188 1.875 -7.796875 C 1.875 -6.347656 2.085938 -5.039062 2.515625 -3.875 C 2.941406 -2.707031 3.515625 -1.769531 4.234375 -1.0625 C 4.960938 -0.363281 5.78125 0.00390625 6.6875 0.046875 L 6.84375 0.046875 C 7.476562 0.046875 8.09375 -0.0859375 8.6875 -0.359375 C 8.6875 -0.359375 8.691406 -0.359375 8.703125 -0.359375 C 9.253906 -0.628906 9.695312 -0.945312 10.03125 -1.3125 C 10.363281 -1.675781 10.609375 -2.046875 10.765625 -2.421875 C 10.929688 -2.796875 11.0625 -3.140625 11.15625 -3.453125 C 11.15625 -3.484375 11.164062 -3.503906 11.1875 -3.515625 C 11.21875 -3.515625 11.242188 -3.507812 11.265625 -3.5 Z M 11.265625 -3.5 "/></g></g></g><g fill="#000000" fill-opacity="1"><g transform="translate(123.832339, 219.177348)"><g><path d="M 6.984375 -15.78125 C 7.785156 -15.75 8.539062 -15.519531 9.25 -15.09375 C 9.96875 -14.675781 10.597656 -14.097656 11.140625 -13.359375 C 11.679688 -12.628906 12.101562 -11.785156 12.40625 -10.828125 C 12.707031 -9.878906 12.859375 -8.867188 12.859375 -7.796875 C 12.859375 -6.722656 12.707031 -5.707031 12.40625 -4.75 C 12.101562 -3.789062 11.679688 -2.945312 11.140625 -2.21875 C 10.597656 -1.488281 9.96875 -0.910156 9.25 -0.484375 C 8.539062 -0.0546875 7.785156 0.160156 6.984375 0.171875 C 6.972656 0.171875 6.96875 0.171875 6.96875 0.171875 C 6.9375 0.191406 6.890625 0.203125 6.828125 0.203125 C 6.765625 0.203125 6.71875 0.191406 6.6875 0.171875 C 5.882812 0.160156 5.125 -0.0546875 4.40625 -0.484375 C 3.695312 -0.910156 3.070312 -1.488281 2.53125 -2.21875 C 1.988281 -2.945312 1.566406 -3.789062 1.265625 -4.75 C 0.960938 -5.707031 0.8125 -6.722656 0.8125 -7.796875 C 0.8125 -8.867188 0.960938 -9.878906 1.265625 -10.828125 C 1.566406 -11.785156 1.988281 -12.628906 2.53125 -13.359375 C 3.070312 -14.097656 3.695312 -14.675781 4.40625 -15.09375 C 5.125 -15.519531 5.882812 -15.75 6.6875 -15.78125 C 6.78125 -15.78125 6.875 -15.78125 6.96875 -15.78125 C 6.976562 -15.78125 6.984375 -15.78125 6.984375 -15.78125 Z M 6.96875 0.046875 C 7.675781 0.015625 8.335938 -0.21875 8.953125 -0.65625 C 9.566406 -1.101562 10.09375 -1.707031 10.53125 -2.46875 C 10.96875 -3.226562 11.296875 -4.109375 11.515625 -5.109375 C 11.703125 -5.953125 11.796875 -6.847656 11.796875 -7.796875 C 11.796875 -9.242188 11.582031 -10.550781 11.15625 -11.71875 C 10.738281 -12.894531 10.164062 -13.832031 9.4375 -14.53125 C 8.71875 -15.226562 7.894531 -15.59375 6.96875 -15.625 C 6.9375 -15.625 6.890625 -15.625 6.828125 -15.625 C 6.765625 -15.625 6.71875 -15.625 6.6875 -15.625 C 5.945312 -15.59375 5.257812 -15.34375 4.625 -14.875 C 4 -14.40625 3.46875 -13.757812 3.03125 -12.9375 C 2.59375 -12.113281 2.273438 -11.175781 2.078125 -10.125 C 1.929688 -9.375 1.859375 -8.597656 1.859375 -7.796875 C 1.859375 -7.523438 1.863281 -7.253906 1.875 -6.984375 C 1.894531 -6.847656 1.910156 -6.722656 1.921875 -6.609375 C 1.941406 -6.335938 1.972656 -6.082031 2.015625 -5.84375 C 2.078125 -5.46875 2.148438 -5.101562 2.234375 -4.75 C 2.390625 -4.164062 2.578125 -3.628906 2.796875 -3.140625 C 2.890625 -2.929688 2.988281 -2.734375 3.09375 -2.546875 C 3.195312 -2.367188 3.304688 -2.195312 3.421875 -2.03125 C 3.890625 -1.34375 4.421875 -0.820312 5.015625 -0.46875 C 5.160156 -0.375 5.3125 -0.300781 5.46875 -0.25 C 5.863281 -0.0703125 6.269531 0.0234375 6.6875 0.046875 C 6.71875 0.046875 6.765625 0.046875 6.828125 0.046875 C 6.898438 0.046875 6.945312 0.046875 6.96875 0.046875 Z M 6.96875 0.046875 "/></g></g></g><g fill="#000000" fill-opacity="1"><g transform="translate(144.852274, 219.177348)"><g><path d="M 2.703125 -15.671875 C 2.765625 -15.671875 2.796875 -15.640625 2.796875 -15.578125 C 2.796875 -15.535156 2.765625 -15.515625 2.703125 -15.515625 C 2.484375 -15.515625 2.375 -15.40625 2.375 -15.1875 L 2.375 0 C 2.375 0.0390625 2.351562 0.0625 2.3125 0.0625 L 1.171875 0.0625 C 1.117188 0.0625 1.09375 0.0390625 1.09375 0 C 1.09375 -0.0390625 1.117188 -0.0625 1.171875 -0.0625 C 1.398438 -0.0625 1.515625 -0.179688 1.515625 -0.421875 L 1.515625 -15.1875 C 1.515625 -15.40625 1.398438 -15.515625 1.171875 -15.515625 C 1.117188 -15.515625 1.09375 -15.535156 1.09375 -15.578125 C 1.09375 -15.640625 1.117188 -15.671875 1.171875 -15.671875 Z M 9.453125 -1 C 9.503906 -1 9.53125 -0.972656 9.53125 -0.921875 L 9.53125 0 C 9.53125 0.0390625 9.503906 0.0625 9.453125 0.0625 L 6 0.0625 C 6 0.0625 5.882812 0.0625 5.65625 0.0625 C 5.4375 0.0625 5.175781 0.0625 4.875 0.0625 C 4.582031 0.0625 4.316406 0.0625 4.078125 0.0625 C 3.847656 0.0625 3.734375 0.0625 3.734375 0.0625 C 3.691406 0.0625 3.671875 0.0390625 3.671875 0 C 3.671875 -0.0390625 3.691406 -0.0625 3.734375 -0.0625 L 6 -0.0625 C 7 -0.0625 7.8125 -0.15625 8.4375 -0.34375 C 9.0625 -0.53125 9.375 -0.722656 9.375 -0.921875 C 9.375 -0.972656 9.398438 -1 9.453125 -1 Z M 9.453125 -1 "/></g></g></g><g fill="#000000" fill-opacity="1"><g transform="translate(161.753754, 219.177348)"><g><path d="M 2.703125 -15.671875 C 2.765625 -15.671875 2.796875 -15.640625 2.796875 -15.578125 C 2.796875 -15.535156 2.765625 -15.515625 2.703125 -15.515625 C 2.484375 -15.515625 2.375 -15.40625 2.375 -15.1875 L 2.375 0 C 2.375 0.0390625 2.351562 0.0625 2.3125 0.0625 L 1.171875 0.0625 C 1.117188 0.0625 1.09375 0.0390625 1.09375 0 C 1.09375 -0.0390625 1.117188 -0.0625 1.171875 -0.0625 C 1.398438 -0.0625 1.515625 -0.179688 1.515625 -0.421875 L 1.515625 -15.1875 C 1.515625 -15.40625 1.398438 -15.515625 1.171875 -15.515625 C 1.117188 -15.515625 1.09375 -15.535156 1.09375 -15.578125 C 1.09375 -15.640625 1.117188 -15.671875 1.171875 -15.671875 Z M 9.453125 -1 C 9.503906 -1 9.53125 -0.972656 9.53125 -0.921875 L 9.53125 0 C 9.53125 0.0390625 9.503906 0.0625 9.453125 0.0625 L 6 0.0625 C 6 0.0625 5.882812 0.0625 5.65625 0.0625 C 5.4375 0.0625 5.175781 0.0625 4.875 0.0625 C 4.582031 0.0625 4.316406 0.0625 4.078125 0.0625 C 3.847656 0.0625 3.734375 0.0625 3.734375 0.0625 C 3.691406 0.0625 3.671875 0.0390625 3.671875 0 C 3.671875 -0.0390625 3.691406 -0.0625 3.734375 -0.0625 L 6 -0.0625 C 7 -0.0625 7.8125 -0.15625 8.4375 -0.34375 C 9.0625 -0.53125 9.375 -0.722656 9.375 -0.921875 C 9.375 -0.972656 9.398438 -1 9.453125 -1 Z M 9.453125 -1 "/></g></g></g><g fill="#000000" fill-opacity="1"><g transform="translate(178.655235, 219.177348)"><g><path d="M 6.9375 -8.21875 C 6.9375 -8.257812 6.96875 -8.28125 7.03125 -8.28125 C 7.070312 -8.28125 7.09375 -8.257812 7.09375 -8.21875 L 7.09375 -7.390625 C 7.09375 -7.328125 7.070312 -7.296875 7.03125 -7.296875 C 6.96875 -7.296875 6.9375 -7.328125 6.9375 -7.390625 C 6.9375 -7.609375 6.828125 -7.71875 6.609375 -7.71875 L 3.71875 -7.71875 C 3.675781 -7.71875 3.65625 -7.742188 3.65625 -7.796875 C 3.65625 -7.847656 3.675781 -7.875 3.71875 -7.875 L 6.609375 -7.875 C 6.828125 -7.875 6.9375 -7.988281 6.9375 -8.21875 Z M 9.375 -14.671875 C 9.375 -14.859375 9.0625 -15.046875 8.4375 -15.234375 C 7.8125 -15.421875 7 -15.515625 6 -15.515625 L 2.375 -15.515625 L 2.375 -0.0625 L 6 -0.0625 C 7 -0.0625 7.8125 -0.15625 8.4375 -0.34375 C 9.0625 -0.53125 9.375 -0.722656 9.375 -0.921875 C 9.375 -0.972656 9.398438 -1 9.453125 -1 C 9.503906 -1 9.53125 -0.972656 9.53125 -0.921875 L 9.53125 0 C 9.53125 0.0390625 9.503906 0.0625 9.453125 0.0625 L 2.3125 0.0625 C 2.289062 0.0625 2.28125 0.0625 2.28125 0.0625 L 1.171875 0.0625 C 1.117188 0.0625 1.09375 0.0390625 1.09375 0 C 1.09375 -0.0390625 1.117188 -0.0625 1.171875 -0.0625 C 1.398438 -0.0625 1.515625 -0.179688 1.515625 -0.421875 L 1.515625 -15.1875 C 1.515625 -15.40625 1.398438 -15.515625 1.171875 -15.515625 C 1.117188 -15.515625 1.09375 -15.535156 1.09375 -15.578125 C 1.09375 -15.640625 1.117188 -15.671875 1.171875 -15.671875 L 2.28125 -15.671875 C 2.28125 -15.671875 2.285156 -15.671875 2.296875 -15.671875 C 2.304688 -15.671875 2.3125 -15.671875 2.3125 -15.671875 L 9.453125 -15.671875 C 9.503906 -15.671875 9.53125 -15.640625 9.53125 -15.578125 L 9.53125 -14.671875 C 9.53125 -14.617188 9.503906 -14.59375 9.453125 -14.59375 C 9.398438 -14.59375 9.375 -14.617188 9.375 -14.671875 Z M 9.375 -14.671875 "/></g></g></g><g fill="#000000" fill-opacity="1"><g transform="translate(195.870078, 219.177348)"><g><path d="M 8.671875 -15.25 C 8.648438 -15.257812 8.640625 -15.265625 8.640625 -15.265625 C 8.597656 -15.296875 8.59375 -15.328125 8.625 -15.359375 C 8.65625 -15.398438 8.679688 -15.40625 8.703125 -15.375 C 8.703125 -15.375 8.710938 -15.375 8.734375 -15.375 C 9.929688 -14.875 10.914062 -13.941406 11.6875 -12.578125 C 11.695312 -12.546875 11.691406 -12.519531 11.671875 -12.5 L 11.265625 -12.109375 C 11.242188 -12.097656 11.226562 -12.09375 11.21875 -12.09375 C 11.21875 -12.09375 11.207031 -12.09375 11.1875 -12.09375 C 11.164062 -12.09375 11.15625 -12.109375 11.15625 -12.140625 C 11.0625 -12.453125 10.929688 -12.796875 10.765625 -13.171875 C 10.609375 -13.554688 10.359375 -13.929688 10.015625 -14.296875 C 9.679688 -14.660156 9.234375 -14.976562 8.671875 -15.25 Z M 11.265625 -3.5 L 11.671875 -3.09375 C 11.691406 -3.0625 11.695312 -3.03125 11.6875 -3 C 10.925781 -1.664062 9.957031 -0.738281 8.78125 -0.21875 C 8.78125 -0.21875 8.769531 -0.21875 8.75 -0.21875 C 8.75 -0.207031 8.742188 -0.203125 8.734375 -0.203125 L 8.703125 -0.203125 C 8.703125 -0.203125 8.695312 -0.191406 8.6875 -0.171875 C 8.09375 0.078125 7.476562 0.203125 6.84375 0.203125 L 6.6875 0.171875 C 5.875 0.160156 5.113281 -0.0546875 4.40625 -0.484375 C 3.695312 -0.910156 3.070312 -1.484375 2.53125 -2.203125 C 1.988281 -2.929688 1.566406 -3.769531 1.265625 -4.71875 C 0.972656 -5.675781 0.828125 -6.703125 0.828125 -7.796875 C 0.828125 -8.878906 0.972656 -9.898438 1.265625 -10.859375 C 1.566406 -11.816406 1.988281 -12.65625 2.53125 -13.375 C 3.070312 -14.101562 3.695312 -14.675781 4.40625 -15.09375 C 5.113281 -15.519531 5.875 -15.75 6.6875 -15.78125 L 6.84375 -15.78125 C 6.90625 -15.78125 6.9375 -15.753906 6.9375 -15.703125 C 6.9375 -15.648438 6.90625 -15.625 6.84375 -15.625 L 6.71875 -15.625 C 5.789062 -15.582031 4.960938 -15.210938 4.234375 -14.515625 C 3.515625 -13.828125 2.941406 -12.894531 2.515625 -11.71875 C 2.085938 -10.550781 1.875 -9.242188 1.875 -7.796875 C 1.875 -6.347656 2.085938 -5.039062 2.515625 -3.875 C 2.941406 -2.707031 3.515625 -1.769531 4.234375 -1.0625 C 4.960938 -0.363281 5.78125 0.00390625 6.6875 0.046875 L 6.84375 0.046875 C 7.476562 0.046875 8.09375 -0.0859375 8.6875 -0.359375 C 8.6875 -0.359375 8.691406 -0.359375 8.703125 -0.359375 C 9.253906 -0.628906 9.695312 -0.945312 10.03125 -1.3125 C 10.363281 -1.675781 10.609375 -2.046875 10.765625 -2.421875 C 10.929688 -2.796875 11.0625 -3.140625 11.15625 -3.453125 C 11.15625 -3.484375 11.164062 -3.503906 11.1875 -3.515625 C 11.21875 -3.515625 11.242188 -3.507812 11.265625 -3.5 Z M 11.265625 -3.5 "/></g></g></g><g fill="#000000" fill-opacity="1"><g transform="translate(215.457509, 219.177348)"><g><path d="M 10.09375 -15.671875 C 10.144531 -15.671875 10.171875 -15.640625 10.171875 -15.578125 L 10.171875 -14.671875 C 10.171875 -14.617188 10.144531 -14.59375 10.09375 -14.59375 C 10.050781 -14.59375 10.03125 -14.617188 10.03125 -14.671875 C 10.03125 -14.859375 9.71875 -15.046875 9.09375 -15.234375 C 8.46875 -15.421875 7.65625 -15.515625 6.65625 -15.515625 L 5.53125 -15.515625 L 5.53125 -0.421875 C 5.53125 -0.179688 5.640625 -0.0625 5.859375 -0.0625 C 5.910156 -0.0625 5.9375 -0.0390625 5.9375 0 C 5.9375 0.0390625 5.910156 0.0625 5.859375 0.0625 L 4.328125 0.0625 C 4.273438 0.0625 4.25 0.0390625 4.25 0 C 4.25 -0.0390625 4.273438 -0.0625 4.328125 -0.0625 C 4.554688 -0.0625 4.671875 -0.179688 4.671875 -0.421875 L 4.671875 -15.515625 L 3.5625 -15.515625 C 2.5625 -15.515625 1.742188 -15.421875 1.109375 -15.234375 C 0.484375 -15.046875 0.171875 -14.859375 0.171875 -14.671875 C 0.171875 -14.617188 0.144531 -14.59375 0.09375 -14.59375 C 0.0390625 -14.59375 0.015625 -14.617188 0.015625 -14.671875 L 0.015625 -15.578125 C 0.015625 -15.640625 0.0390625 -15.671875 0.09375 -15.671875 Z M 10.09375 -15.671875 "/></g></g></g><g fill="#000000" fill-opacity="1"><g transform="translate(233.008098, 219.177348)"><g><path d="M 2.703125 -0.0625 C 2.765625 -0.0625 2.796875 -0.0390625 2.796875 0 C 2.796875 0.0390625 2.765625 0.0625 2.703125 0.0625 L 1.171875 0.0625 C 1.117188 0.0625 1.09375 0.0390625 1.09375 0 C 1.09375 -0.0390625 1.117188 -0.0625 1.171875 -0.0625 C 1.398438 -0.0625 1.515625 -0.179688 1.515625 -0.421875 L 1.515625 -15.1875 C 1.515625 -15.40625 1.398438 -15.515625 1.171875 -15.515625 C 1.117188 -15.515625 1.09375 -15.535156 1.09375 -15.578125 C 1.09375 -15.640625 1.117188 -15.671875 1.171875 -15.671875 L 2.703125 -15.671875 C 2.765625 -15.671875 2.796875 -15.640625 2.796875 -15.578125 C 2.796875 -15.535156 2.765625 -15.515625 2.703125 -15.515625 C 2.484375 -15.515625 2.375 -15.40625 2.375 -15.1875 L 2.375 -0.421875 C 2.375 -0.179688 2.484375 -0.0625 2.703125 -0.0625 Z M 2.703125 -0.0625 "/></g></g></g><g fill="#000000" fill-opacity="1"><g transform="translate(244.246722, 219.177348)"><g><path d="M 1.640625 -15.421875 C 1.585938 -15.367188 1.570312 -15.289062 1.59375 -15.1875 L 5.0625 -1.359375 C 5.0625 -1.347656 5.0625 -1.335938 5.0625 -1.328125 L 4.703125 0.140625 C 4.703125 0.109375 4.703125 0.109375 4.703125 0.140625 C 4.703125 0.148438 4.691406 0.160156 4.671875 0.171875 C 4.660156 0.171875 4.65625 0.171875 4.65625 0.171875 C 4.644531 0.191406 4.640625 0.203125 4.640625 0.203125 C 4.617188 0.203125 4.601562 0.191406 4.59375 0.171875 C 4.570312 0.160156 4.554688 0.148438 4.546875 0.140625 L 0.71875 -15.15625 C 0.65625 -15.394531 0.503906 -15.515625 0.265625 -15.515625 C 0.222656 -15.515625 0.203125 -15.535156 0.203125 -15.578125 C 0.203125 -15.640625 0.222656 -15.671875 0.265625 -15.671875 L 1.40625 -15.671875 C 1.40625 -15.671875 1.410156 -15.671875 1.421875 -15.671875 C 1.429688 -15.671875 1.4375 -15.671875 1.4375 -15.671875 L 1.84375 -15.671875 C 1.882812 -15.671875 1.90625 -15.640625 1.90625 -15.578125 C 1.90625 -15.535156 1.882812 -15.515625 1.84375 -15.515625 C 1.75 -15.515625 1.679688 -15.484375 1.640625 -15.421875 Z M 8.984375 -15.671875 C 9.023438 -15.671875 9.046875 -15.640625 9.046875 -15.578125 C 9.046875 -15.535156 9.023438 -15.515625 8.984375 -15.515625 C 8.742188 -15.515625 8.59375 -15.394531 8.53125 -15.15625 L 5.84375 -4.40625 C 5.832031 -4.363281 5.8125 -4.34375 5.78125 -4.34375 C 5.757812 -4.34375 5.75 -4.34375 5.75 -4.34375 C 5.695312 -4.351562 5.675781 -4.382812 5.6875 -4.4375 L 8.390625 -15.1875 C 8.410156 -15.289062 8.398438 -15.367188 8.359375 -15.421875 C 8.304688 -15.484375 8.238281 -15.515625 8.15625 -15.515625 C 8.09375 -15.515625 8.0625 -15.535156 8.0625 -15.578125 C 8.0625 -15.640625 8.09375 -15.671875 8.15625 -15.671875 Z M 8.984375 -15.671875 "/></g></g></g><g fill="#000000" fill-opacity="1"><g transform="translate(260.857225, 219.177348)"><g><path d="M 6.9375 -8.21875 C 6.9375 -8.257812 6.96875 -8.28125 7.03125 -8.28125 C 7.070312 -8.28125 7.09375 -8.257812 7.09375 -8.21875 L 7.09375 -7.390625 C 7.09375 -7.328125 7.070312 -7.296875 7.03125 -7.296875 C 6.96875 -7.296875 6.9375 -7.328125 6.9375 -7.390625 C 6.9375 -7.609375 6.828125 -7.71875 6.609375 -7.71875 L 3.71875 -7.71875 C 3.675781 -7.71875 3.65625 -7.742188 3.65625 -7.796875 C 3.65625 -7.847656 3.675781 -7.875 3.71875 -7.875 L 6.609375 -7.875 C 6.828125 -7.875 6.9375 -7.988281 6.9375 -8.21875 Z M 9.375 -14.671875 C 9.375 -14.859375 9.0625 -15.046875 8.4375 -15.234375 C 7.8125 -15.421875 7 -15.515625 6 -15.515625 L 2.375 -15.515625 L 2.375 -0.0625 L 6 -0.0625 C 7 -0.0625 7.8125 -0.15625 8.4375 -0.34375 C 9.0625 -0.53125 9.375 -0.722656 9.375 -0.921875 C 9.375 -0.972656 9.398438 -1 9.453125 -1 C 9.503906 -1 9.53125 -0.972656 9.53125 -0.921875 L 9.53125 0 C 9.53125 0.0390625 9.503906 0.0625 9.453125 0.0625 L 2.3125 0.0625 C 2.289062 0.0625 2.28125 0.0625 2.28125 0.0625 L 1.171875 0.0625 C 1.117188 0.0625 1.09375 0.0390625 1.09375 0 C 1.09375 -0.0390625 1.117188 -0.0625 1.171875 -0.0625 C 1.398438 -0.0625 1.515625 -0.179688 1.515625 -0.421875 L 1.515625 -15.1875 C 1.515625 -15.40625 1.398438 -15.515625 1.171875 -15.515625 C 1.117188 -15.515625 1.09375 -15.535156 1.09375 -15.578125 C 1.09375 -15.640625 1.117188 -15.671875 1.171875 -15.671875 L 2.28125 -15.671875 C 2.28125 -15.671875 2.285156 -15.671875 2.296875 -15.671875 C 2.304688 -15.671875 2.3125 -15.671875 2.3125 -15.671875 L 9.453125 -15.671875 C 9.503906 -15.671875 9.53125 -15.640625 9.53125 -15.578125 L 9.53125 -14.671875 C 9.53125 -14.617188 9.503906 -14.59375 9.453125 -14.59375 C 9.398438 -14.59375 9.375 -14.617188 9.375 -14.671875 Z M 9.375 -14.671875 "/></g></g></g></svg>